<svg width="15" height="15" viewBox="0 0 15 15" fill="none" xmlns="http://www.w3.org/2000/svg">
<path fill-rule="evenodd" clip-rule="evenodd" d="M0.376733 14.0227H0.329705C0.329705 13.9993 0.317927 13.9639 0.317927 13.9521C0.317927 13.9404 0.317927 13.9169 0.282592 13.9169H0.211923V14.0227H0.176588V13.7756H0.282592C0.329705 13.7756 0.364954 13.7874 0.364954 13.8344C0.364954 13.8697 0.353176 13.8816 0.341483 13.8932C0.353262 13.9051 0.364954 13.9168 0.364954 13.9404V13.9874C0.364954 13.9993 0.364954 13.9993 0.376733 13.9993V14.0227ZM0.329705 13.8462C0.329705 13.8109 0.306149 13.8109 0.29437 13.8109H0.211923V13.8816H0.282592C0.306149 13.8816 0.329705 13.8697 0.329705 13.8462ZM0.52985 13.8933C0.52985 13.7521 0.412153 13.6342 0.259036 13.6342C0.117782 13.6342 0 13.7521 0 13.8933C0 14.0463 0.117782 14.1642 0.259036 14.1642C0.412067 14.1641 0.52985 14.0463 0.52985 13.8933ZM0.494515 13.8933C0.494515 14.0228 0.388596 14.117 0.259036 14.117C0.129475 14.117 0.0353347 14.0228 0.0353347 13.8933C0.0353347 13.7756 0.129561 13.6696 0.259036 13.6696C0.388511 13.6696 0.494515 13.7756 0.494515 13.8933ZM15 9.13666C15 9.48992 14.7763 9.65456 14.3759 9.65456H13.6108V9.3013H14.3759C14.4466 9.3013 14.5055 9.28961 14.5291 9.26614C14.5526 9.2425 14.5762 9.20716 14.5762 9.16013C14.5762 9.11294 14.5527 9.06591 14.5291 9.04244C14.5055 9.0188 14.4585 9.0071 14.3878 9.0071C14.0229 8.99524 13.5637 9.0188 13.5637 8.50081C13.5637 8.26524 13.7167 8.00621 14.1288 8.00621H14.9176V8.35947H14.1876C14.1171 8.35947 14.0699 8.35947 14.0345 8.38294C13.9992 8.41828 13.9757 8.45361 13.9757 8.5125C13.9757 8.57139 14.0111 8.60673 14.0581 8.63037C14.1053 8.64206 14.1524 8.65384 14.2113 8.65384H14.4231C14.6468 8.65384 14.7882 8.70087 14.8824 8.7834C14.9529 8.86576 15 8.97185 15 9.13666ZM13.3399 8.7834C13.2456 8.70087 13.1043 8.65384 12.8806 8.65384H12.6688C12.61 8.65384 12.5628 8.64198 12.5157 8.63037C12.4685 8.60673 12.4334 8.57139 12.4334 8.5125C12.4334 8.45361 12.4451 8.41828 12.4922 8.38294C12.5275 8.35947 12.5745 8.35947 12.6452 8.35947H13.3752V8.00621H12.5864C12.1625 8.00621 12.0211 8.26524 12.0211 8.50081C12.0211 9.01871 12.4804 8.99524 12.8454 9.0071C12.9159 9.0071 12.9631 9.0188 12.9866 9.04244C13.0101 9.06591 13.0338 9.11294 13.0338 9.16013C13.0338 9.20716 13.0102 9.2425 12.9866 9.26614C12.9513 9.28961 12.9042 9.3013 12.8336 9.3013H12.0682V9.65456H12.8336C13.2338 9.65456 13.4576 9.48984 13.4576 9.13666C13.4576 8.97185 13.4105 8.86576 13.3399 8.7834ZM11.8328 9.31325H10.9028V8.98355H11.8093V8.65401H10.9028V8.34778H11.8328V8.00638H10.5142V9.65465H11.8328V9.31325ZM10.0903 8.08883C9.96071 8.01816 9.80768 8.00629 9.60754 8.00629H8.70104V9.65456H9.10124V9.05413H9.52517C9.66634 9.05413 9.74887 9.06599 9.80777 9.1248C9.87843 9.20716 9.87843 9.3485 9.87843 9.4545V9.65456H10.2669V9.33664C10.2669 9.18361 10.2552 9.11294 10.2081 9.03057C10.1727 8.98337 10.1022 8.92457 10.008 8.88923C10.1138 8.85407 10.2906 8.71273 10.2906 8.45361C10.2905 8.26533 10.2198 8.15933 10.0903 8.08883ZM7.85326 8.00629H6.59342L6.08712 8.54792L5.60439 8.00629H4.01493V9.65456H5.58092L6.08721 9.11294L6.56995 9.65456H7.33528V9.10133H7.82979C8.17119 9.10133 8.51276 9.0071 8.51276 8.54792C8.51267 8.10052 8.15941 8.00629 7.85326 8.00629ZM9.77235 8.68926C9.71354 8.71273 9.65465 8.71273 9.58398 8.71273L9.10124 8.7246V8.34769H9.58398C9.65465 8.34769 9.72532 8.34769 9.77235 8.38303C9.81954 8.40667 9.85471 8.4537 9.85471 8.52437C9.85471 8.59503 9.81954 8.65393 9.77235 8.68926ZM7.85326 8.77162H7.33519V8.34769H7.85326C7.9946 8.34769 8.08874 8.40667 8.08874 8.54792C8.08874 8.68926 7.99451 8.77162 7.85326 8.77162ZM6.33438 8.83043L6.94659 8.18297V9.5134L6.33438 8.83043ZM5.38069 9.31325H4.40344V8.98355H5.27468V8.65401H4.40344V8.34778H5.39247L5.82809 8.83051L5.38069 9.31325ZM13.905 6.81712H13.3399L12.5981 5.58083V6.81712H11.7976L11.6444 6.45208H10.8203L10.6672 6.81712H10.208C10.0196 6.81712 9.77234 6.77001 9.63118 6.62867C9.50162 6.48741 9.43095 6.29905 9.43095 6.00468C9.43095 5.75742 9.46628 5.53372 9.64279 5.35713C9.76048 5.22757 9.97249 5.16876 10.2432 5.16876H10.62V5.52203H10.2432C10.102 5.52203 10.0195 5.54558 9.93715 5.61625C9.86649 5.68692 9.83115 5.8164 9.83115 5.99298C9.83115 6.16957 9.86649 6.29913 9.93715 6.38158C9.99596 6.44039 10.102 6.46394 10.2079 6.46394H10.3846L10.9497 5.16885H11.5384L12.1977 6.72298V5.16876H12.81L13.5047 6.31083V5.16876H13.9049V6.81712H13.905ZM9.2308 5.16876H8.8306V6.81712H9.2308V5.16876ZM8.3948 5.23943C8.26524 5.16877 8.12408 5.16876 7.92393 5.16876H7.01726V6.81712H7.40577V6.2166H7.82962C7.97096 6.2166 8.06518 6.22838 8.12399 6.28727C8.19466 6.36972 8.1828 6.51106 8.1828 6.6052V6.81712H8.583V6.48741C8.583 6.34616 8.57131 6.27549 8.5125 6.19304C8.47717 6.14593 8.4065 6.08704 8.32413 6.05179C8.42997 6.00468 8.60673 5.8752 8.60673 5.61617C8.60681 5.4278 8.52428 5.3218 8.3948 5.23943ZM6.73467 6.47572H5.81631V6.14602H6.72289V5.80462H5.81631V5.51025H6.73467V5.16885H5.41602V6.8172H6.73467V6.47572ZM5.12165 5.16876H4.47411L3.99137 6.28727L3.4733 5.16876H2.83753V6.72289L2.16643 5.16876H1.57777L0.871333 6.81712H1.29518L1.44821 6.45208H2.27234L2.42538 6.81712H3.22604V5.52203L3.80292 6.81712H4.14431L4.72128 5.52203V6.81712H5.12157V5.16876H5.12165ZM11.5032 6.0989L11.2323 5.45136L10.9616 6.0989H11.5032ZM8.08874 5.83995C8.02994 5.87529 7.97104 5.87529 7.8886 5.87529H7.40577V5.51033H7.88851C7.95918 5.51033 8.04146 5.51033 8.08866 5.53389C8.13568 5.56922 8.15933 5.61634 8.15933 5.68692C8.15933 5.75751 8.13577 5.81631 8.08874 5.83995ZM1.58946 6.0989L1.86028 5.45136L2.13109 6.0989H1.58946ZM14.9059 0H0.859469V5.93409L1.34221 4.83914H2.36649L2.50782 5.10996V4.83914H3.70878L3.97959 5.4278L4.23863 4.83914H8.06518C8.24169 4.83914 8.39472 4.87448 8.51259 4.96862V4.83914H9.56042V4.96862C9.73693 4.87439 9.96063 4.83914 10.2197 4.83914H11.7385L11.8799 5.10996V4.83914H12.9984L13.1633 5.10996V4.83914H14.2581V7.14682H13.1515L12.9397 6.79365V7.14682H11.562L11.409 6.77009H11.0674L10.9144 7.14682H10.1963C9.91368 7.14682 9.70168 7.07616 9.56051 7.00557V7.14682H7.85326V6.61697C7.85326 6.54631 7.84148 6.53453 7.79437 6.53453H7.73556V7.14674H4.43877V6.85237L4.32107 7.14674H3.62641L3.50872 6.86415V7.14674H2.1782L2.03695 6.77001H1.69547L1.54244 7.14674H0.859469V14.1052H14.9059V9.87826C14.7528 9.94893 14.5408 9.98427 14.3289 9.98427H13.3045V9.84293C13.1868 9.93724 12.9748 9.98427 12.7748 9.98427H9.54864V9.4545C9.54864 9.38383 9.53695 9.38383 9.47797 9.38383H9.41917V9.98427H8.35947V9.36028C8.18297 9.44264 7.98274 9.44264 7.80615 9.44264H7.68837V9.98427H6.39327L6.08721 9.63101L5.74581 9.98427H3.66166V7.67667H5.78098L6.08712 8.02977L6.41683 7.67667H7.84148C8.00621 7.67667 8.27711 7.70015 8.3948 7.81784V7.67667H9.66634C9.7959 7.67667 10.0432 7.70015 10.208 7.81784V7.67667H12.1271V7.81793C12.2331 7.7237 12.4334 7.67676 12.6099 7.67676H13.6813V7.81793C13.7991 7.73557 13.9639 7.67676 14.1759 7.67676H14.9059V0Z" fill="white"/>
</svg>
