<svg width="20" height="4" viewBox="0 0 20 4" fill="none" xmlns="http://www.w3.org/2000/svg">
<path fill-rule="evenodd" clip-rule="evenodd" d="M0 0.0517405H0.869644C1.03181 0.0517405 1.19388 0.0664922 1.34119 0.0886208C2.10756 0.199157 2.71188 0.604528 2.71188 1.68039C2.71188 2.74897 2.10756 3.16151 1.34119 3.26467C1.19388 3.2868 1.03171 3.29406 0.869644 3.29406H0V0.0517405ZM19.72 0.545412C19.8378 0.545412 19.9263 0.457004 19.9263 0.324339C19.9263 0.191781 19.8378 0.0958902 19.72 0.0958902C19.602 0.0958902 19.5135 0.191674 19.5135 0.324339C19.5135 0.457004 19.602 0.545412 19.72 0.545412ZM19.72 0.0443642C19.7568 0.0443502 19.7932 0.0515821 19.8272 0.0656472C19.8612 0.0797123 19.892 0.100335 19.918 0.126336C19.944 0.152336 19.9647 0.183206 19.9787 0.217181C19.9928 0.251155 20 0.287568 20 0.324339C20 0.361119 19.9928 0.397543 19.9787 0.43153C19.9647 0.465517 19.9441 0.4964 19.9181 0.522412C19.8921 0.548424 19.8612 0.569056 19.8272 0.583128C19.7932 0.5972 19.7568 0.604435 19.72 0.604421C19.6833 0.604421 19.6468 0.597178 19.6129 0.583105C19.5789 0.569032 19.548 0.548406 19.522 0.522403C19.496 0.4964 19.4754 0.465529 19.4613 0.431555C19.4472 0.39758 19.44 0.361167 19.44 0.324393C19.44 0.287619 19.4472 0.251205 19.4613 0.21723C19.4754 0.183256 19.496 0.152385 19.522 0.126382C19.548 0.100379 19.5789 0.0797526 19.6129 0.0656798C19.6468 0.051607 19.6833 0.0443642 19.72 0.0443642ZM19.72 0.368596L19.7052 0.346468H19.6684V0.479132H19.6093V0.162276H19.7346C19.8082 0.162276 19.8526 0.191782 19.8526 0.258061C19.8526 0.309587 19.8156 0.339091 19.7641 0.346468L19.8526 0.479132H19.7862L19.72 0.368596ZM19.72 0.206534H19.7273C19.7567 0.206534 19.7862 0.21391 19.7862 0.250791C19.7862 0.295048 19.7568 0.302317 19.7273 0.302317H19.6685V0.206534H19.72ZM17.6714 1.4297C17.9146 1.4002 18.1134 1.29704 18.1134 0.987557C18.1134 0.692829 17.9147 0.611691 17.6714 0.574916H17.2291V1.44456H17.4354C17.5166 1.44456 17.5976 1.43708 17.6714 1.4297ZM17.6714 0.0591167C18.2462 0.0812453 18.7767 0.199157 18.7767 0.93603C18.7767 1.31927 18.5335 1.63613 18.1283 1.68765C18.2978 1.70978 18.401 1.87933 18.4599 2.02675L18.9685 3.29406H18.2609L17.8778 2.27722C17.8189 2.1298 17.7674 2.04129 17.6715 1.98976C17.6199 1.96036 17.5389 1.9455 17.4355 1.9455H17.2292V3.29406H16.5955V0.0517405H17.2807C17.4059 0.0517405 17.5461 0.0517405 17.6714 0.0591167ZM11.7686 1.02444C11.8422 1.21601 11.879 1.42981 11.879 1.67301C11.879 1.90146 11.8422 2.12253 11.7686 2.32147C11.5401 2.9476 10.9874 3.35307 10.2286 3.35307C9.2116 3.35307 8.56303 2.66035 8.56303 1.6729C8.56303 0.677969 9.22625 0.000106843 10.2286 0.000106843C10.9874 0.000106843 11.5401 0.398101 11.7686 1.02444ZM11.7686 0.339091L12.8888 3.29406H13.1245L14.3699 0.0517405H13.7066L13.0435 1.76131L12.3361 0.0517405H11.6581L11.7686 0.339091ZM14.5321 0.0517405H16.4185V0.574916H15.1731V1.3708H16.3078V1.87174H15.1732V2.78564H16.426V3.29406H14.5322V0.0517405H14.5321ZM1.34119 0.62655C1.23065 0.589669 1.11274 0.574916 0.994933 0.574916H0.633819V2.78564H0.994933C1.11285 2.78564 1.23076 2.76351 1.34119 2.72674C1.73181 2.58659 2.04866 2.22558 2.04866 1.68028C2.04877 1.13497 1.73181 0.759108 1.34119 0.62655ZM2.96246 0.0517405H3.60354V3.29406H2.96246V0.0517405ZM5.65958 0.913901C5.43851 0.77386 5.20279 0.633819 4.95222 0.604421C4.72377 0.574917 4.48057 0.641195 4.48057 0.965428C4.48057 1.52549 5.88076 1.28966 5.88076 2.373C5.88076 3.08037 5.3207 3.42673 4.67962 3.35307C4.33325 3.31609 4.13431 3.21293 3.86161 3.02884V2.36552C4.07541 2.48354 4.39216 2.71188 4.64274 2.75614C4.91544 2.80039 5.21017 2.71915 5.21017 2.42453C5.21017 1.79819 3.81745 2.05604 3.81745 0.98745C3.81745 0.26533 4.36276 0 4.92282 0C5.2029 0 5.44599 0.10316 5.65969 0.294727V0.913901H5.65958ZM8.40086 2.96983C8.23869 3.17637 7.85555 3.29406 7.5976 3.31619C6.60278 3.38258 5.93956 2.8299 5.93956 1.73191C5.93956 0.62655 6.52174 -0.0219148 7.5976 0.0370949C7.8113 0.0444711 8.15766 0.118126 8.38611 0.309693V0.92876C8.1134 0.759321 7.83343 0.641409 7.5976 0.634033C6.94176 0.611905 6.60278 1.02454 6.60278 1.68776C6.60278 2.35109 6.91963 2.71936 7.5976 2.68996C7.86282 2.68269 8.26082 2.46889 8.40086 2.35109V2.96983Z" fill="white"/>
</svg>
