<svg width="25" height="11" viewBox="0 0 25 11" fill="none" xmlns="http://www.w3.org/2000/svg">
<path d="M7.56525 10.6646H5.95752C5.82751 10.6423 5.69665 10.6242 5.5676 10.597C4.64318 10.4021 3.69346 10.2836 2.80097 9.99102C1.46266 9.55243 0.524378 8.64933 0.209169 7.22222C-0.0700126 5.95861 -0.0655544 4.68645 0.197602 3.42007C0.394848 2.47095 0.90875 1.73582 1.72063 1.193C2.41274 0.730307 3.18161 0.468114 3.97951 0.303039C4.67861 0.158568 5.39494 0.0978401 6.10368 0C6.56649 0 7.0293 0 7.49223 0C7.60983 0.0216887 7.72804 0.0407266 7.84504 0.0655481C8.7691 0.261108 9.72834 0.358828 10.6095 0.674157C12.6431 1.40193 13.3957 2.6512 13.3835 4.9831C13.2306 4.99057 13.0757 5.00515 12.9209 5.00467C10.9971 4.99852 9.07346 4.99009 7.14967 4.9825C7.05231 4.98214 6.95098 4.96828 6.85892 4.99081C6.80482 5.00407 6.73349 5.07395 6.72903 5.12383C6.72506 5.16673 6.79687 5.24192 6.84941 5.25867C6.92748 5.28361 7.01785 5.27144 7.10316 5.27204C9.09901 5.28493 11.0948 5.29686 13.0907 5.31096C13.195 5.31168 13.2993 5.32867 13.4502 5.34241C13.4118 5.83414 13.3931 6.2943 13.337 6.74964C13.1613 8.17459 12.4414 9.2242 11.1233 9.82149C10.6835 10.0208 10.2202 10.1915 9.75003 10.2955C9.02984 10.4549 8.29435 10.5452 7.56549 10.6647L7.56525 10.6646Z" fill="white"/>
<path d="M13.7364 10.2703V5.33988C13.815 5.33 13.9178 5.30554 14.0206 5.30566C16.8449 5.30904 19.6693 5.31314 22.4936 5.32133C23.6144 5.32458 24.478 5.91295 24.8349 6.90352C25.2092 7.94241 24.9435 9.14167 24.104 9.78775C23.766 10.0479 23.2991 10.2774 22.8875 10.2831C19.8934 10.3243 16.8984 10.305 13.9037 10.3036C13.8579 10.3036 13.8122 10.286 13.7363 10.2704L13.7364 10.2703Z" fill="white"/>
<path d="M13.7305 4.9816V0.317205C13.8477 0.304553 13.9401 0.285997 14.0324 0.285997C16.855 0.284551 19.6775 0.279732 22.5001 0.287564C23.7191 0.290937 24.6486 0.987265 24.9157 2.06302C25.273 3.50123 24.3409 4.85677 22.8689 4.99931C22.3502 5.04956 21.8237 5.02486 21.3008 5.02401C18.9285 5.02004 16.5561 5.01257 14.1839 5.00486C14.0403 5.00437 13.8966 4.99052 13.7305 4.9816Z" fill="white"/>
</svg>
