<svg width="19" height="6" viewBox="0 0 19 6" fill="none" xmlns="http://www.w3.org/2000/svg">
<path fill-rule="evenodd" clip-rule="evenodd" d="M6.50841 5.89999H8.01752L8.96085 0.103574H7.45158L6.50841 5.89999ZM3.80014 4.09039L5.23886 0.103574H6.86301L4.46205 5.90015H2.88968L1.57857 0.864253C0.727343 0.35305 0 0.201721 0 0.201721L7.11298e-05 0.201471C2.37475e-05 0.201461 0 0.201456 0 0.201456L0.0279092 0.103309H2.40639C3.06086 0.103309 3.12226 0.625209 3.12226 0.625209L3.63005 3.23192C3.63005 3.23192 3.63001 3.23179 3.62992 3.23153L3.63005 3.23219L3.62989 3.23188L3.80014 4.09039ZM18.4945 5.89999H17.1088L16.932 5.03899H15.0136L14.699 5.89999H13.1258L15.3765 0.53539C15.3765 0.53539 15.513 0.103419 16.0732 0.103419H17.2863L18.4945 5.89999ZM16.2411 1.68044L15.4482 3.8496H16.6872L16.2411 1.68044ZM13.4592 0.252732L13.2438 1.49748C12.598 1.14164 11.1283 1.05745 11.1281 1.71285C11.1281 1.97322 11.4607 2.15228 11.8615 2.3681C12.4693 2.69542 13.2342 3.10727 13.2342 4.0155C13.2342 5.46678 11.6806 6 10.6507 6C9.62121 6 8.94736 5.67269 8.94736 5.67269L9.17172 4.37119C9.78959 4.8672 11.6618 5.00814 11.6618 4.22157C11.6618 3.89104 11.2933 3.69612 10.8659 3.4701C10.2762 3.15823 9.57454 2.78714 9.57454 1.91891C9.57454 0.327312 11.353 0 12.1019 0C12.7946 0 13.4592 0.252732 13.4592 0.252732Z" fill="white"/>
</svg>
