<svg width="18" height="11" viewBox="0 0 18 11" fill="none" xmlns="http://www.w3.org/2000/svg">
<path fill-rule="evenodd" clip-rule="evenodd" d="M9 9.44603C9.55892 8.93612 10.0051 8.31504 10.31 7.62259C10.6148 6.93015 10.7716 6.18164 10.7702 5.42507C10.7716 4.66849 10.6148 3.91998 10.31 3.22753C10.0051 2.53509 9.55894 1.914 9 1.40411C8.04423 0.531664 6.77636 0 5.38505 0C2.41106 0 0 2.42886 0 5.42507C0 8.42119 2.41106 10.8501 5.38505 10.8501C6.77636 10.8501 8.04433 10.3185 9 9.44603Z" fill="white"/>
<path fill-rule="evenodd" clip-rule="evenodd" d="M12.6136 0C11.2223 0 9.95424 0.531664 8.99867 1.40411C8.80379 1.58217 8.62209 1.77414 8.45498 1.97849H9.54198C9.69121 2.16089 9.82844 2.35278 9.9528 2.55297H8.04445C7.92957 2.73808 7.82589 2.92992 7.73397 3.12745H10.2628C10.3498 3.3144 10.4261 3.50617 10.4913 3.70183H7.50595C7.44335 3.89028 7.39116 4.08203 7.34961 4.27621H10.6477C10.7285 4.65383 10.7691 5.03892 10.769 5.42507C10.769 6.02735 10.6712 6.60683 10.4914 7.14821H7.50595C7.57089 7.34392 7.64702 7.53573 7.73397 7.72269H10.2628C10.171 7.92023 10.0675 8.11207 9.9527 8.29717H8.04445C8.16868 8.49734 8.30579 8.68924 8.45489 8.87165H9.54198C9.37508 9.07609 9.1935 9.2681 8.99867 9.44613C9.95424 10.3186 11.2223 10.8502 12.6136 10.8502C15.5875 10.8502 17.9987 8.42128 17.9987 5.42517C17.9987 2.42886 15.5875 0 12.6136 0Z" fill="white"/>
<path fill-rule="evenodd" clip-rule="evenodd" d="M16.1445 6.60078C16.1445 6.50399 16.2224 6.42548 16.3184 6.42548C16.4144 6.42548 16.4922 6.50399 16.4922 6.60078C16.4922 6.69756 16.4144 6.77588 16.3184 6.77588C16.2224 6.77588 16.1445 6.69747 16.1445 6.60078ZM16.3183 6.73374C16.3912 6.73374 16.4504 6.67419 16.4504 6.60068C16.4504 6.52698 16.3912 6.46743 16.3183 6.46743C16.2452 6.46743 16.1862 6.52698 16.1862 6.60068C16.1862 6.67419 16.2453 6.73374 16.3183 6.73374ZM16.2948 6.67755H16.2591V6.52361H16.3238C16.3371 6.52361 16.351 6.52381 16.3626 6.5315C16.3688 6.5358 16.3738 6.54154 16.3772 6.54822C16.3806 6.55489 16.3823 6.5623 16.3822 6.5698C16.3822 6.58731 16.3722 6.60347 16.3557 6.60963L16.3839 6.67746H16.3445L16.321 6.61655H16.2949V6.67755V6.59038H16.3146C16.3219 6.59038 16.33 6.59096 16.3363 6.5874C16.3391 6.58541 16.3414 6.58275 16.343 6.57967C16.3446 6.57658 16.3454 6.57316 16.3453 6.5697C16.3453 6.56657 16.3444 6.56349 16.3429 6.56075C16.3414 6.558 16.3393 6.55566 16.3367 6.55392C16.3305 6.55036 16.3205 6.55113 16.314 6.55113H16.295V6.67755H16.2948ZM4.71269 6.77588H4.04249L4.4408 4.66154L3.52371 6.77588H2.91258L2.80088 4.67366L2.40131 6.77588H1.79297L2.3128 4.02549H3.35862L3.41394 5.72824L4.1513 4.02549H5.24109L4.71269 6.77588ZM12.2028 6.74846C12.0195 6.79916 11.8761 6.821 11.7212 6.821C11.3783 6.821 11.1911 6.64773 11.1911 6.32984C11.1911 6.26692 11.198 6.19996 11.2108 6.12915L11.2516 5.91046L11.283 5.73343L11.5936 4.02539H12.2602L12.1636 4.53906H12.5056L12.4137 5.08285H12.0703L11.8936 6.0161C11.8871 6.04658 11.8832 6.07759 11.8822 6.10875C11.8822 6.2243 11.9515 6.27452 12.1109 6.27452C12.1872 6.27452 12.2463 6.2676 12.2916 6.25365L12.2028 6.74846ZM14.1604 4.55744C14.1042 4.53512 14.091 4.53512 14.0844 4.53329C14.0489 4.5254 14.03 4.52078 14.0267 4.52021C14.0045 4.51631 13.9819 4.51444 13.9593 4.51463C13.7392 4.51463 13.5806 4.61334 13.3755 4.87782L13.4346 4.53887H12.8276L12.4191 6.77578H13.0898C13.3298 5.40776 13.4325 5.16819 13.7543 5.16819C13.7785 5.16819 13.8065 5.17011 13.839 5.17387L13.9173 5.18993L14.1604 4.55744ZM9.54597 5.24574C9.54597 5.52831 9.70404 5.72294 10.0623 5.86919C10.3369 5.98156 10.3793 6.01446 10.3793 6.11606C10.3793 6.25528 10.2583 6.31811 9.99018 6.31811C9.78775 6.31811 9.59965 6.29069 9.3825 6.22959L9.28947 6.74557L9.31949 6.75067L9.4437 6.77357C9.48372 6.7805 9.5427 6.78714 9.62092 6.7931C9.78217 6.80571 9.90695 6.81167 9.99489 6.81167C10.7103 6.81167 11.0408 6.57547 11.0408 6.06526C11.0408 5.75825 10.9026 5.57824 10.5629 5.44268C10.2786 5.32944 10.2457 5.30433 10.2457 5.19994C10.2457 5.07939 10.3585 5.01743 10.5775 5.01743C10.7108 5.01743 10.8924 5.03003 11.0648 5.051L11.1614 4.53319C10.9859 4.50914 10.7196 4.48942 10.5647 4.48942C9.80622 4.48951 9.54366 4.83318 9.54597 5.24574ZM6.8915 6.77588H6.33453L6.34752 6.54401C6.1779 6.72758 5.9518 6.81456 5.6445 6.81456C5.2813 6.81456 5.03202 6.56537 5.03202 6.20362C5.03202 5.65867 5.46507 5.34108 6.20936 5.34108C6.28565 5.34108 6.38254 5.34714 6.48241 5.3583C6.50319 5.2848 6.50886 5.25305 6.50886 5.21302C6.50886 5.06495 6.39197 5.00954 6.07899 5.00954C5.88763 5.00954 5.67134 5.03378 5.52202 5.07188L5.42918 5.09565L5.36905 5.11008L5.46199 4.60718C5.79613 4.52098 6.01665 4.48836 6.26439 4.48836C6.84041 4.48836 7.14482 4.71561 7.14482 5.14452C7.14482 5.25488 7.13472 5.33868 7.09037 5.58767L6.95028 6.38122L6.92671 6.52361L6.90958 6.63734L6.89814 6.71517L6.8915 6.77588ZM6.40255 5.77932C6.35286 5.77314 6.30283 5.77005 6.25275 5.77009C5.87291 5.77009 5.68048 5.88448 5.68048 6.11039C5.68048 6.2496 5.77439 6.3385 5.92092 6.3385C6.19416 6.3386 6.39101 6.1101 6.40255 5.77932ZM9.09021 6.72758C8.86637 6.78833 8.6354 6.81885 8.40346 6.81831C7.65416 6.81773 7.26364 6.47407 7.26364 5.81617C7.26364 5.04831 7.76048 4.48297 8.43492 4.48297C8.98669 4.48297 9.33902 4.7996 9.33902 5.29605C9.33902 5.46086 9.31496 5.62154 9.25676 5.84831H7.92413C7.92006 5.8715 7.9179 5.89499 7.91769 5.91854C7.91769 6.17783 8.11636 6.31012 8.50563 6.31012C8.74501 6.31012 8.96139 6.26635 9.20163 6.16859L9.09021 6.72758ZM8.73327 5.39659C8.73693 5.35003 8.73885 5.31193 8.73885 5.28249C8.73885 5.10084 8.62138 4.99424 8.42183 4.99424C8.20863 4.99424 8.05614 5.13721 7.99427 5.39525L8.73327 5.39659ZM16.2437 5.76172C16.1434 6.50582 15.6276 6.83582 14.9419 6.83582C14.1836 6.83582 13.8774 6.37247 13.8774 5.80472C13.8774 5.01194 14.3961 4.47479 15.1971 4.47479C15.8925 4.47479 16.2616 4.9165 16.2616 5.48434C16.2616 5.6225 16.2614 5.63164 16.2437 5.76172ZM15.5535 5.47549C15.5535 5.2415 15.4592 5.0206 15.1844 5.0206C14.8424 5.0206 14.6304 5.42786 14.6304 5.78741C14.6304 6.09066 14.7757 6.29444 15.0153 6.29011C15.1606 6.29011 15.4704 6.09076 15.5317 5.74257C15.546 5.66137 15.5535 5.57228 15.5535 5.47549Z" fill="#26337A"/>
</svg>
