<svg width="24" height="7" viewBox="0 0 24 7" fill="none" xmlns="http://www.w3.org/2000/svg">
<path d="M2.79698 5.01431e-08H0.983992C0.923972 -3.78067e-05 0.865911 0.0213612 0.820273 0.0603414C0.774634 0.0993216 0.744416 0.15332 0.735066 0.212607L0.00181158 4.86159C-0.00155941 4.88316 -0.000214703 4.90521 0.00575246 4.92621C0.0117196 4.94722 0.0221676 4.96668 0.0363775 4.98325C0.0505873 4.99983 0.0682212 5.01313 0.088065 5.02224C0.107909 5.03135 0.129491 5.03605 0.151325 5.03602H1.01686C1.07692 5.03605 1.13501 5.01461 1.18066 4.97558C1.2263 4.93655 1.25649 4.88248 1.26579 4.82315L1.46355 3.56925C1.47284 3.50996 1.50299 3.45593 1.54858 3.4169C1.59417 3.37788 1.6522 3.35641 1.71221 3.35638H2.28614C3.4804 3.35638 4.16965 2.77847 4.34965 1.63325C4.43077 1.13222 4.35309 0.738556 4.11848 0.462857C3.86081 0.160118 3.40378 5.01431e-08 2.79698 5.01431e-08ZM3.00614 1.69794C2.907 2.34848 2.40994 2.34848 1.92932 2.34848H1.65574L1.84767 1.13355C1.85329 1.098 1.87141 1.06563 1.89877 1.04226C1.92613 1.01888 1.96094 1.00604 1.99692 1.00604H2.12231C2.44971 1.00604 2.75854 1.00604 2.91813 1.19267C3.0133 1.30401 3.04246 1.46943 3.00614 1.69794ZM8.21633 1.67699H7.34814C7.31216 1.677 7.27735 1.68984 7.24999 1.71321C7.22263 1.73659 7.20451 1.76896 7.19889 1.80451L7.16046 2.04733L7.09975 1.95932C6.9118 1.68654 6.49268 1.59535 6.07436 1.59535C5.11498 1.59535 4.29557 2.32197 4.13598 3.34127C4.053 3.84972 4.17097 4.3359 4.45939 4.67496C4.72396 4.98671 5.10252 5.11661 5.55291 5.11661C6.32593 5.11661 6.75459 4.61956 6.75459 4.61956L6.71589 4.86079C6.71244 4.88236 6.71371 4.90442 6.71961 4.92545C6.7255 4.94648 6.73589 4.96599 6.75005 4.98262C6.76421 4.99925 6.78181 5.01261 6.80163 5.02178C6.82146 5.03096 6.84303 5.03572 6.86487 5.03576H7.6469C7.70696 5.03578 7.76506 5.01435 7.8107 4.97531C7.85634 4.93628 7.88654 4.88222 7.89583 4.82288L8.36505 1.85143C8.3685 1.82991 8.36724 1.80789 8.36136 1.78691C8.35547 1.76592 8.3451 1.74646 8.33096 1.72988C8.31682 1.71329 8.29925 1.69997 8.27946 1.69084C8.25966 1.68171 8.23813 1.67699 8.21633 1.67699ZM7.00617 3.36671C6.9224 3.86271 6.52873 4.19567 6.02664 4.19567C5.77453 4.19567 5.57306 4.11481 5.4437 3.96159C5.31539 3.80942 5.26661 3.59284 5.30744 3.3516C5.38564 2.85985 5.78593 2.51602 6.28034 2.51602C6.52688 2.51602 6.72729 2.59794 6.85931 2.75249C6.99159 2.90863 7.04408 3.12654 7.00617 3.36671ZM12.8401 1.67699H11.9677C11.9266 1.67706 11.886 1.68716 11.8497 1.70643C11.8133 1.72569 11.7822 1.75353 11.7591 1.78754L10.5558 3.55997L10.0458 1.85673C10.0301 1.80478 9.99813 1.75925 9.95459 1.72688C9.91105 1.69451 9.85824 1.67702 9.80399 1.67699H8.94667C8.9226 1.67693 8.89887 1.68262 8.87745 1.69358C8.85602 1.70454 8.83753 1.72046 8.8235 1.74001C8.80947 1.75956 8.80031 1.78218 8.79679 1.80599C8.79327 1.8298 8.79548 1.8541 8.80325 1.87688L9.76422 4.69696L8.86078 5.97234C8.84472 5.99495 8.8352 6.02155 8.83325 6.04921C8.8313 6.07688 8.83701 6.10454 8.84974 6.12918C8.86247 6.15382 8.88173 6.17448 8.90542 6.1889C8.92911 6.20332 8.95632 6.21094 8.98405 6.21093H9.85542C9.8961 6.21098 9.93619 6.20117 9.97225 6.18233C10.0083 6.16349 10.0393 6.13619 10.0625 6.10277L12.9642 1.91426C12.9799 1.89159 12.9891 1.86506 12.9909 1.83753C12.9926 1.81 12.9867 1.78252 12.974 1.75808C12.9612 1.73364 12.9419 1.71316 12.9184 1.69886C12.8948 1.68457 12.8677 1.67701 12.8401 1.67699Z" fill="white"/>
<path d="M15.7287 0.000265076H13.9154C13.8554 0.000290378 13.7974 0.0217179 13.7519 0.0606925C13.7063 0.0996671 13.6761 0.15363 13.6668 0.212872L12.9335 4.86185C12.9301 4.88339 12.9314 4.90541 12.9373 4.92639C12.9432 4.94738 12.9536 4.96683 12.9678 4.98341C12.9819 4.99999 12.9995 5.0133 13.0193 5.02243C13.0391 5.03156 13.0607 5.03629 13.0825 5.03629H14.013C14.0549 5.03623 14.0955 5.02119 14.1274 4.99388C14.1593 4.96656 14.1804 4.92877 14.1869 4.8873L14.395 3.56951C14.4043 3.51022 14.4344 3.4562 14.48 3.41717C14.5256 3.37814 14.5836 3.35668 14.6436 3.35664H15.2173C16.4118 3.35664 17.1008 2.77873 17.2811 1.63352C17.3624 1.13249 17.2842 0.738821 17.0496 0.463122C16.7922 0.160383 16.3355 0.000265076 15.7287 0.000265076ZM15.9378 1.6982C15.8389 2.34875 15.3419 2.34875 14.861 2.34875H14.5877L14.7799 1.13381C14.7854 1.09827 14.8035 1.06587 14.8308 1.04248C14.8581 1.01909 14.8929 1.00626 14.9289 1.0063H15.0543C15.3814 1.0063 15.6905 1.0063 15.8501 1.19293C15.9452 1.30427 15.9741 1.46969 15.9378 1.6982ZM21.1477 1.67726H20.2801C20.2441 1.67716 20.2093 1.68998 20.1819 1.71337C20.1546 1.73677 20.1366 1.7692 20.1311 1.80477L20.0927 2.0476L20.0317 1.95959C19.8437 1.6868 19.4249 1.59561 19.0066 1.59561C18.0472 1.59561 17.228 2.32224 17.0685 3.34153C16.9857 3.84998 17.1032 4.33617 17.3916 4.67523C17.6567 4.98698 18.0347 5.11688 18.4851 5.11688C19.2581 5.11688 19.6868 4.61982 19.6868 4.61982L19.6481 4.86106C19.6446 4.88267 19.6459 4.90478 19.6519 4.92585C19.6578 4.94691 19.6682 4.96644 19.6824 4.98308C19.6967 4.99972 19.7143 5.01307 19.7342 5.02221C19.7541 5.03135 19.7757 5.03607 19.7976 5.03602H20.5794C20.6394 5.03599 20.6974 5.01452 20.743 4.97549C20.7886 4.93647 20.8188 4.88244 20.828 4.82315L21.2975 1.85169C21.3009 1.8301 21.2995 1.80805 21.2935 1.78705C21.2875 1.76605 21.277 1.74659 21.2628 1.73002C21.2485 1.71345 21.2309 1.70015 21.211 1.69104C21.1912 1.68194 21.1696 1.67723 21.1477 1.67726ZM19.9376 3.36698C19.8543 3.86297 19.4602 4.19593 18.9581 4.19593C18.7065 4.19593 18.5045 4.11508 18.3751 3.96185C18.2468 3.80969 18.1986 3.59311 18.2389 3.35187C18.3176 2.86012 18.7174 2.51629 19.2118 2.51629C19.4583 2.51629 19.6587 2.5982 19.7907 2.75275C19.9235 2.90889 19.976 3.1268 19.9376 3.36698ZM22.1713 0.127776L21.4272 4.86185C21.4238 4.88339 21.4251 4.90541 21.431 4.92639C21.4369 4.94738 21.4473 4.96683 21.4614 4.98341C21.4756 4.99999 21.4932 5.0133 21.513 5.02243C21.5328 5.03156 21.5543 5.03629 21.5761 5.03629H22.3242C22.4486 5.03629 22.5541 4.94615 22.5732 4.82341L23.307 0.174698C23.3104 0.153149 23.3091 0.131119 23.3031 0.11012C23.2972 0.089122 23.2868 0.0696539 23.2727 0.0530543C23.2585 0.0364548 23.2409 0.0231174 23.2211 0.013959C23.2013 0.00480068 23.1798 3.86084e-05 23.158 0H22.3203C22.2843 0.000127346 22.2496 0.0130557 22.2223 0.0364691C22.195 0.0598825 22.1769 0.0922511 22.1713 0.127776Z" fill="white"/>
</svg>
