<svg width="60" height="72" viewBox="0 0 60 72" fill="none" xmlns="http://www.w3.org/2000/svg">
<path d="M56.4103 59.6947C58.4436 58.5311 59.8127 56.5256 59.9835 54.461C60.1879 51.9894 58.589 49.6328 56.3436 49.0958C54.8322 48.7343 53.2924 49.1567 51.891 50.3169C50.7999 51.2201 49.8453 52.5336 49.203 54.0151C48.5169 55.5976 48.0848 57.1986 47.9097 58.7629C44.9878 58.2974 42.1193 57.0551 39.6319 55.1508C36.4089 52.6833 34.0919 49.3088 33.108 45.6488C32.9587 45.093 32.3874 44.7639 31.8312 44.9131C31.2755 45.0625 30.9461 45.6342 31.0956 46.1899C33.1433 53.8069 40.077 59.735 47.8305 60.8599C47.8824 62.2046 48.1365 63.5014 48.5951 64.7122C50.0172 68.4663 53.5593 71.1163 57.2089 71.1569H57.2205C57.7906 71.1569 58.256 70.6978 58.2623 70.1264C58.2686 69.5509 57.8074 69.0793 57.2318 69.0729C54.4194 69.0416 51.6692 66.9449 50.5437 63.9739C50.1996 63.0656 49.998 62.0778 49.9365 61.0445C50.1269 61.0504 50.3205 61.0519 50.5097 61.0529C52.8892 61.0495 54.8192 60.6052 56.4103 59.6947ZM49.9963 58.9613C50.1499 57.6021 50.5242 56.2065 51.115 54.844C52.4257 51.8212 54.4927 50.7958 55.859 51.1226C57.0865 51.4161 58.0243 52.8662 57.9066 54.2891C57.7916 55.68 56.8217 57.0582 55.3752 57.8859C54.1069 58.6118 52.5145 58.966 50.5071 58.9688C50.3362 58.9692 50.1668 58.9665 49.9963 58.9613Z" fill="white"/>
<path d="M38.1988 29.7087C38.7571 29.5691 39.0965 29.0032 38.9569 28.445C38.8172 27.8868 38.2511 27.5472 37.6931 27.687L34.7186 28.4311L28.6134 21.0234L15.0052 4.51242L50.9852 24.0491C51.014 24.0646 51.0901 24.106 51.0751 24.2245C51.0601 24.343 50.9759 24.364 50.9442 24.3719L42.3942 26.5109C41.836 26.6506 41.4965 27.2164 41.6362 27.7747C41.7758 28.3329 42.3418 28.6723 42.8999 28.5327L51.4499 26.3937C52.3601 26.166 53.0244 25.4175 53.1424 24.4867C53.2604 23.5559 52.804 22.6653 51.9795 22.2177L11.2896 0.123551C11.2457 0.0996545 11.1993 0.0790925 11.1524 0.061865C11.0996 0.0424144 11.0432 0.0271319 10.9879 0.0165731C10.9861 0.0162952 10.9843 0.0157395 10.9812 0.0153227C10.5893 -0.0473358 10.2211 0.0827048 9.9738 0.395719C9.88683 0.505753 9.8225 0.633293 9.7861 0.768752C9.78569 0.770419 6.84297 11.719 6.84297 11.719C6.69361 12.2747 7.02302 12.8464 7.57875 12.9958C8.13462 13.1452 8.70619 12.8157 8.85554 12.26L11.0345 4.15245L23.5707 32.3861L20.364 33.1789L2.30127 37.6443C2.17304 37.6758 2.05606 37.5584 2.09079 37.4293C2.10135 37.3899 7.59237 16.9605 7.59237 16.9605C7.74172 16.4047 7.41231 15.833 6.85658 15.6837C6.30071 15.5349 5.72915 15.8637 5.57979 16.4195L0.0782177 36.8883C-0.131431 37.6684 0.0809965 38.4786 0.646312 39.0555C1.07922 39.4973 1.65315 39.7349 2.25028 39.7349C2.43284 39.7349 2.61776 39.7127 2.80143 39.6673L17.5646 36.0175C18.2581 36.4411 28.297 42.5748 28.297 42.5748C28.5432 42.7253 28.8654 42.7666 29.1424 42.6825C29.4228 42.5975 29.6674 42.3839 29.7889 42.1169C29.7901 42.1141 34.073 32.692 35.0736 30.4905L38.1988 29.7087ZM20.4102 35.3141L24.4297 34.3205L26.5316 39.0543L20.4102 35.3141ZM28.8514 39.1432L14.8413 7.59018L33.1153 29.7627L28.8514 39.1432Z" fill="white"/>
<path d="M44.2405 34.0055C44.0733 33.4548 43.4912 33.144 42.9409 33.311C42.3902 33.4781 42.0792 34.06 42.2464 34.6106C42.91 36.7981 44.5508 38.6642 46.6354 39.6026C46.7743 39.6651 46.9195 39.6947 47.0624 39.6947C47.4599 39.6947 47.8395 39.466 48.0132 39.0802C48.2493 38.5554 48.0155 37.9386 47.4908 37.7024C45.9471 37.0074 44.732 35.6255 44.2405 34.0055Z" fill="white"/>
<path d="M48.7967 31.4061C48.523 30.8999 47.891 30.7112 47.3846 30.985C46.8783 31.2586 46.6898 31.8909 46.9635 32.3971C48.4073 35.0682 51.0375 37.0621 53.9994 37.7307C54.0767 37.7481 54.1538 37.7566 54.2298 37.7566C54.706 37.7566 55.1359 37.4279 55.2452 36.9438C55.3719 36.3825 55.0196 35.8247 54.4582 35.698C52.0748 35.1598 49.9584 33.5555 48.7967 31.4061Z" fill="white"/>
<path d="M14.8037 41.5547C14.26 41.7437 13.9727 42.3376 14.1617 42.8811C14.7175 44.4801 14.5486 46.3124 13.7094 47.7826C13.4242 48.2825 13.5982 48.9188 14.0979 49.204C14.2609 49.297 14.4384 49.3413 14.6135 49.3413C14.9754 49.3413 15.3272 49.1525 15.5195 48.8156C16.6526 46.8302 16.8808 44.3559 16.1302 42.1966C15.9411 41.6531 15.3469 41.3656 14.8037 41.5547Z" fill="white"/>
<path d="M9.84151 42.29C9.27119 42.3667 8.87093 42.8913 8.94762 43.4616C9.27327 45.883 8.50637 48.4256 6.89601 50.2633C6.51672 50.6961 6.56021 51.3545 6.99298 51.7336C7.19068 51.907 7.43548 51.9919 7.6793 51.9919C7.96898 51.9919 8.2574 51.8717 8.46344 51.6366C10.4646 49.3529 11.4177 46.193 11.0131 43.1838C10.9364 42.6135 10.4124 42.2131 9.84151 42.29Z" fill="white"/>
</svg>
