<svg width="16" height="12" viewBox="0 0 16 12" fill="none" xmlns="http://www.w3.org/2000/svg">
<path fill-rule="evenodd" clip-rule="evenodd" d="M2.01099 0C0.912088 0 0.0109891 0.89011 0.0109891 2V6.93407C0.571429 7.20879 1.15385 7.38461 1.73626 7.38461C2.42857 7.38461 2.8022 6.96703 2.8022 6.3956V4.06593H4.51648V6.38462C4.51648 7.28571 3.95604 8.02198 2.05494 8.02198C0.901099 8.02198 0 7.76923 0 7.76923V11.978H2.93407C4.03297 11.978 4.93407 11.0879 4.93407 9.97802V0H2.01099ZM13.0657 0C11.9668 0 11.0657 0.89011 11.0657 2V4.07692H13.8899C13.9558 4.07692 14.0327 4.07692 14.0877 4.08791C14.725 4.12088 15.1975 4.45055 15.1975 5.02198C15.1975 5.47253 14.8789 5.85714 14.2855 5.93407V5.95604C14.9338 6 15.4283 6.36264 15.4283 6.92308C15.4283 7.52747 14.8789 7.92308 14.1536 7.92308H11.0547V11.989H13.9888C15.0877 11.989 15.9888 11.0989 15.9888 9.98901V0H13.0657ZM12.043 7.28541H13.1968C13.2133 7.28541 13.2408 7.28267 13.2682 7.27992L13.2682 7.27992C13.2957 7.27717 13.3232 7.27443 13.3397 7.27443C13.5595 7.23047 13.7463 7.03267 13.7463 6.75794C13.7463 6.4942 13.5595 6.2964 13.3397 6.24146C13.3067 6.23047 13.2408 6.23047 13.1968 6.23047H12.043V7.28541ZM13.1968 4.68091C13.4166 4.71388 13.6034 4.8897 13.6034 5.15344C13.6034 5.41717 13.4166 5.593 13.1968 5.62597C13.1858 5.63695 13.1199 5.63695 13.0869 5.63695H12.043V4.66992H13.0869C13.1051 4.66992 13.1299 4.67325 13.1522 4.67625C13.1704 4.67869 13.1869 4.68091 13.1968 4.68091ZM5.53906 2C5.53906 0.89011 6.44016 0 7.53906 0H10.4731V10C10.4731 11.1099 9.57203 12 8.47313 12H5.53906V7.38461C6.04456 7.81319 6.92368 8.08791 8.34126 8.02198C9.11049 7.98901 9.91269 7.78022 9.91269 7.78022V6.93407C9.50609 7.13187 9.02258 7.32967 8.3962 7.37363C7.31928 7.46154 6.67093 6.93407 6.67093 6C6.67093 5.07692 7.31928 4.54945 8.3962 4.62637C9.02258 4.67033 9.50609 4.85714 9.91269 5.06593V4.21978C9.91269 4.21978 9.0995 4.01099 8.34126 3.97802C6.92368 3.91209 6.04456 4.18681 5.53906 4.61538V2Z" fill="white"/>
</svg>
