<svg width="18" height="14" viewBox="0 0 18 14" fill="none" xmlns="http://www.w3.org/2000/svg">
<path fill-rule="evenodd" clip-rule="evenodd" d="M9.00019 9.93721C9.97969 10.7093 11.1911 11.1284 12.4383 11.1265C15.5105 11.1265 18.0008 8.63581 18.0008 5.56327H18.0007C18.0007 2.49073 15.5104 5.83978e-06 12.4382 5.83978e-06C11.191 -0.00180431 9.97963 0.41725 9.00015 1.18936C8.02085 0.417227 6.80963 -0.00183661 5.56255 6.05084e-06C2.49036 6.05084e-06 0 2.49073 0 5.56327C0 8.63581 2.49036 11.1265 5.56255 11.1265C6.80964 11.1284 8.02088 10.7093 9.00019 9.93721ZM17.8282 9.00994V8.79395H17.7719L17.7068 8.94217L17.6421 8.79395H17.5857V9.00994H17.6257V8.84722L17.6865 8.98762H17.7279L17.7887 8.84686V9.00994H17.8282ZM17.4713 9.00994V8.83093H17.5433V8.79449H17.3594V8.83093H17.4314V9.00994H17.471H17.4713ZM17.6422 13.8126V13.8486H17.6757C17.682 13.8487 17.6882 13.8472 17.6937 13.8441C17.6959 13.8425 17.6977 13.8404 17.6989 13.838C17.7 13.8356 17.7006 13.833 17.7005 13.8303C17.7006 13.8277 17.7 13.825 17.6988 13.8227C17.6977 13.8204 17.6959 13.8183 17.6937 13.8169C17.6883 13.8136 17.682 13.812 17.6757 13.8123H17.6422V13.8126ZM17.6761 13.7872C17.6905 13.7863 17.7047 13.7904 17.7164 13.7989C17.7211 13.8027 17.7248 13.8076 17.7273 13.8131C17.7297 13.8187 17.7308 13.8247 17.7305 13.8307C17.7307 13.8359 17.7298 13.8411 17.7279 13.846C17.7259 13.8508 17.723 13.8551 17.7192 13.8587C17.7102 13.8666 17.6989 13.8713 17.687 13.8721L17.732 13.9234H17.6973L17.6559 13.8725H17.6425V13.9234H17.6135V13.7873H17.6765L17.6761 13.7872ZM17.6671 13.9704C17.6823 13.9706 17.6973 13.9675 17.7113 13.9614C17.7247 13.9556 17.7369 13.9474 17.7473 13.937C17.7576 13.9267 17.7659 13.9145 17.7717 13.901C17.7835 13.8725 17.7835 13.8405 17.7717 13.8119C17.7658 13.7985 17.7576 13.7863 17.7473 13.7759C17.7369 13.7656 17.7247 13.7573 17.7113 13.7515C17.6973 13.7458 17.6822 13.7429 17.6671 13.7431C17.6517 13.7429 17.6364 13.7458 17.6221 13.7515C17.6084 13.7572 17.5959 13.7655 17.5853 13.7759C17.5694 13.7923 17.5586 13.8129 17.5543 13.8353C17.5501 13.8577 17.5525 13.8809 17.5613 13.9019C17.5667 13.9154 17.5749 13.9277 17.5853 13.9379C17.5959 13.9483 17.6084 13.9566 17.6221 13.9623C17.6363 13.9684 17.6516 13.9714 17.6671 13.9713V13.9704ZM17.6671 13.7103C17.7066 13.7103 17.7446 13.7258 17.7728 13.7535C17.7864 13.7668 17.7973 13.7827 17.8047 13.8002C17.8124 13.8182 17.8163 13.8376 17.8163 13.8571C17.8163 13.8767 17.8124 13.8961 17.8047 13.9141C17.7971 13.9315 17.7863 13.9473 17.7728 13.9608C17.759 13.974 17.743 13.9847 17.7254 13.9923C17.707 14.0001 17.6871 14.0041 17.6671 14.004C17.6468 14.0041 17.6267 14.0001 17.6081 13.9923C17.5903 13.9849 17.5741 13.9742 17.5603 13.9608C17.5468 13.9468 17.5362 13.9305 17.5289 13.9125C17.5212 13.8945 17.5172 13.8752 17.5172 13.8556C17.5172 13.8361 17.5212 13.8167 17.5289 13.7987C17.5363 13.7812 17.5471 13.7653 17.5607 13.752C17.5743 13.7384 17.5906 13.7276 17.6085 13.7205C17.6272 13.7126 17.6473 13.7086 17.6675 13.7088L17.6671 13.7103ZM3.88695 13.1845C3.88695 12.9248 4.05704 12.7115 4.33503 12.7115C4.6007 12.7115 4.77997 12.9157 4.77997 13.1845C4.77997 13.4533 4.6007 13.6574 4.33503 13.6574C4.05704 13.6574 3.88695 13.4441 3.88695 13.1845ZM5.08281 13.1845V12.4456H4.76161V12.6256C4.65974 12.4926 4.50522 12.4092 4.29508 12.4092C3.8811 12.4092 3.55621 12.7339 3.55621 13.1848C3.55621 13.6358 3.88092 13.9605 4.29508 13.9605C4.50513 13.9605 4.65974 13.877 4.76161 13.7441V13.9234H5.08245V13.1845H5.08281ZM15.9356 13.1845C15.9356 12.9248 16.1057 12.7115 16.3837 12.7115C16.6497 12.7115 16.8287 12.9157 16.8287 13.1845C16.8287 13.4533 16.6497 13.6574 16.3837 13.6574C16.1058 13.6574 15.9356 13.4441 15.9356 13.1845ZM17.1318 13.1845V11.8525H16.8103V12.6256C16.7085 12.4926 16.5539 12.4092 16.3438 12.4092C15.9298 12.4092 15.6049 12.7339 15.6049 13.1848C15.6049 13.6358 15.9296 13.9605 16.3438 13.9605C16.5539 13.9605 16.7085 13.877 16.8103 13.7441V13.9234H17.1318V13.1845ZM9.06935 12.6963C9.27629 12.6964 9.40918 12.8261 9.4431 13.0546H8.6767C8.71099 12.8413 8.84049 12.6963 9.06935 12.6963ZM9.07574 12.4084C8.64286 12.4084 8.34002 12.7233 8.34002 13.184C8.34002 13.6537 8.65501 13.9597 9.09725 13.9597C9.31972 13.9597 9.52347 13.9042 9.70274 13.7527L9.54534 13.5147C9.4215 13.6137 9.26383 13.6692 9.11561 13.6692C8.90862 13.6692 8.72017 13.5733 8.67382 13.3074H9.7706L9.77076 13.3053C9.77386 13.2661 9.77699 13.2264 9.77699 13.1839C9.77375 12.7234 9.489 12.4083 9.07556 12.4083L9.07574 12.4084ZM12.9535 13.1839C12.9535 12.9243 13.1236 12.711 13.4016 12.711C13.6672 12.711 13.8465 12.9151 13.8465 13.1839C13.8465 13.4528 13.6672 13.6569 13.4016 13.6569C13.1236 13.6569 12.9534 13.4436 12.9534 13.1839H12.9535ZM14.1492 13.1839V12.4456H13.8282V12.6256C13.726 12.4926 13.5718 12.4092 13.3617 12.4092C12.9477 12.4092 12.6228 12.7339 12.6228 13.1848C12.6228 13.6358 12.9475 13.9605 13.3617 13.9605C13.5718 13.9605 13.726 13.877 13.8282 13.7441V13.9234H14.1493V13.1845L14.1492 13.1839ZM11.1396 13.1839C11.1396 13.632 11.4515 13.9596 11.9276 13.9596C12.1501 13.9596 12.2983 13.9101 12.4586 13.7835L12.3043 13.5239C12.1837 13.6105 12.0571 13.6569 11.9174 13.6569C11.661 13.6537 11.4724 13.4683 11.4724 13.1839C11.4724 12.8995 11.661 12.7142 11.9174 12.711C12.0568 12.711 12.1834 12.7574 12.3043 12.844L12.4586 12.5844C12.298 12.4578 12.1498 12.4083 11.9276 12.4083C11.4515 12.4083 11.1396 12.7358 11.1396 13.1839ZM15.2803 12.4083C15.095 12.4083 14.9743 12.4949 14.8909 12.6247V12.4456H14.5726V13.9226H14.8941V13.0947C14.8941 12.8502 14.9992 12.7144 15.2091 12.7144C15.2779 12.7134 15.3461 12.7261 15.41 12.7516L15.509 12.4489C15.4379 12.4209 15.3452 12.4085 15.2801 12.4085L15.2803 12.4083ZM6.67078 12.5631C6.51626 12.4612 6.30333 12.4085 6.06844 12.4085C5.69424 12.4085 5.45332 12.5879 5.45332 12.8814C5.45332 13.1222 5.63268 13.2708 5.96297 13.3171L6.1147 13.3387C6.29082 13.3635 6.37398 13.4098 6.37398 13.4933C6.37398 13.6075 6.25698 13.6726 6.0373 13.6726C5.81483 13.6726 5.65428 13.6015 5.54602 13.5181L5.39509 13.7685C5.57122 13.8983 5.79368 13.9602 6.0346 13.9602C6.46118 13.9602 6.7084 13.7594 6.7084 13.4781C6.7084 13.2185 6.51383 13.0827 6.19237 13.0363L6.04099 13.0144C5.90195 12.9964 5.79054 12.9684 5.79054 12.8694C5.79054 12.7614 5.89556 12.6964 6.07177 12.6964C6.26031 12.6964 6.44282 12.7675 6.53228 12.8231L6.67132 12.5634L6.67078 12.5631ZM10.8152 12.4088C10.6299 12.4088 10.5092 12.4955 10.4261 12.6252V12.4456H10.1078V13.9226H10.429V13.0947C10.429 12.8502 10.534 12.7144 10.744 12.7144C10.8127 12.7134 10.881 12.7261 10.9449 12.7516L11.0439 12.4489C10.9728 12.4209 10.8801 12.4085 10.815 12.4085L10.8152 12.4088ZM8.07427 12.4456H7.54905V11.9975H7.22435V12.4456H6.92475V12.7392H7.22435V13.413C7.22435 13.7557 7.35736 13.9598 7.73732 13.9598C7.87673 13.9598 8.03728 13.9166 8.13915 13.8456L8.04637 13.5706C7.95052 13.6261 7.8455 13.6541 7.76198 13.6541C7.60143 13.6541 7.54905 13.5551 7.54905 13.4069V12.7394H8.07427V12.4456ZM3.27219 13.923V12.996C3.27219 12.6469 3.04972 12.412 2.69108 12.4089C2.50254 12.4057 2.30806 12.4644 2.1719 12.6717C2.07002 12.5079 1.90947 12.4089 1.68376 12.4089C1.526 12.4089 1.37184 12.4552 1.25115 12.6282V12.4456H0.929688V13.9226H1.25367V13.1037C1.25367 12.8473 1.39587 12.711 1.61545 12.711C1.82874 12.711 1.93665 12.8501 1.93665 13.1004V13.9224H2.26135V13.1035C2.26135 12.8471 2.40958 12.7108 2.62278 12.7108C2.8421 12.7108 2.94676 12.8499 2.94676 13.1002V13.9223L3.27219 13.923Z" fill="#FCFDFD"/>
</svg>
