<svg width="25" height="12" viewBox="0 0 25 12" fill="none" xmlns="http://www.w3.org/2000/svg">
<path fill-rule="evenodd" clip-rule="evenodd" d="M22.9134 1.85156C22.5649 1.85156 22.1804 2.04594 22.027 2.39513L20.3976 6.13025L19.8106 2.39513C19.7416 2.04591 19.5044 1.85156 19.1288 1.85156H17.0645L18.8302 8.05477C18.8627 8.17372 18.8688 8.30563 18.845 8.44434C18.7527 8.96201 18.2581 9.38196 17.7403 9.38196H16.5843C16.2908 9.38196 16.0974 9.56378 16.0029 9.97544L15.7461 11.5127H17.7819C18.844 11.5127 20.0913 10.9791 20.9233 9.50367L24.9996 1.85156H22.9134Z" fill="white"/>
<path fill-rule="evenodd" clip-rule="evenodd" d="M2.87466 0C3.4843 0 3.7789 0.243206 3.67162 0.854361L3.49597 1.84998H4.89665L4.588 3.59902H3.18669L2.80498 5.76459C2.67308 6.51908 3.41991 6.61959 3.84837 6.61959C3.93374 6.61959 4.00468 6.61768 4.05548 6.61469L3.71286 8.5651C3.6071 8.57635 3.49813 8.59099 3.26744 8.59099C2.20406 8.59099 0.192476 8.30616 0.588013 6.06216L1.02112 3.59899H0L0.307341 1.84994H1.31848L1.64388 0H2.87462H2.87466Z" fill="white"/>
<path fill-rule="evenodd" clip-rule="evenodd" d="M14.6445 1.92969L14.2847 3.96889C14.7284 4.19555 15.0324 4.65586 15.0324 5.18754C15.0324 5.88851 14.5069 6.46287 13.8303 6.54552L13.4707 8.58431C13.5342 8.58833 13.5988 8.59048 13.6631 8.59048C15.5437 8.59048 17.0667 7.0664 17.0667 5.18757C17.0667 3.65139 16.0467 2.35161 14.6445 1.92972" fill="white"/>
<path fill-rule="evenodd" clip-rule="evenodd" d="M13.0433 6.40653C12.6 6.18118 12.2954 5.71872 12.2954 5.18768C12.2954 4.49115 12.822 3.91235 13.4983 3.83117L13.8575 1.79218C13.7936 1.78815 13.7286 1.78516 13.6646 1.78516C11.7856 1.78516 10.2617 3.31029 10.2617 5.18764C10.2617 6.72449 11.2822 8.02512 12.6843 8.44697L13.0433 6.4065V6.40653Z" fill="white"/>
<path fill-rule="evenodd" clip-rule="evenodd" d="M5.70759 1.85162H6.91114C7.52099 1.85162 7.81432 2.09528 7.70686 2.70662L7.57517 3.44625C8.02359 2.53605 8.99624 1.78516 9.99397 1.78516C10.1248 1.78516 10.2508 1.81109 10.2508 1.81109L9.86185 4.01638C9.86185 4.01638 9.68726 3.97581 9.41471 3.97581C8.88303 3.97581 7.98387 4.14447 7.48341 5.14348C7.36403 5.38968 7.27228 5.68919 7.20874 6.05008L6.7733 8.52772H4.53125L5.70763 1.85166L5.70759 1.85162Z" fill="white"/>
</svg>
