<svg width="20" height="6" viewBox="0 0 20 6" fill="none" xmlns="http://www.w3.org/2000/svg">
<path d="M3.83229 5.18252C5.24874 5.18929 6.54159 4.02734 6.54159 2.61378C6.54159 1.06797 5.24874 -0.000513953 3.83229 1.85466e-07H2.61326C1.17985 -0.000513953 0 1.06829 0 2.61378C0 4.02765 1.17985 5.18931 2.61326 5.18252H3.83229Z" fill="white"/>
<path d="M2.61956 0.213867C1.30974 0.214278 0.248355 1.27597 0.248047 2.58632C0.248355 3.89644 1.30973 4.95803 2.61956 4.95844C3.92969 4.95803 4.9913 3.89644 4.99148 2.58632C4.99129 1.27597 3.92969 0.214278 2.61956 0.213867ZM1.11632 2.58632C1.11756 1.94601 1.51746 1.4 2.08136 1.18302V3.98929C1.51746 3.77244 1.11755 3.22672 1.11632 2.58632ZM3.15756 3.98991V1.18293C3.72167 1.39938 4.12218 1.9457 4.12321 2.58632C4.12218 3.22713 3.72167 3.77304 3.15756 3.98991Z" fill="#26337A"/>
<path d="M7.3707 1.11431C7.3707 0.869162 7.24287 0.885306 7.1203 0.882643V0.811795C7.22652 0.817039 7.33542 0.817039 7.44186 0.817039C7.5563 0.817039 7.71168 0.811795 7.91341 0.811795C8.61902 0.811795 9.00328 1.28316 9.00328 1.76582C9.00328 2.03574 8.84535 2.7143 7.88061 2.7143C7.74169 2.7143 7.61346 2.70895 7.48544 2.70895C7.36287 2.70895 7.24287 2.71163 7.12029 2.7143V2.64356C7.2837 2.6271 7.36287 2.62166 7.37069 2.43626V1.11431H7.3707ZM7.63785 2.39276C7.63785 2.60263 7.78787 2.62711 7.92134 2.62711C8.51013 2.62711 8.70345 2.18279 8.70345 1.77662C8.70345 1.26711 8.37635 0.899188 7.8505 0.899188C7.73863 0.899188 7.68721 0.907209 7.63786 0.910098L7.63785 2.39276ZM9.09891 2.64357H9.15053C9.22673 2.64357 9.28134 2.64357 9.28134 2.55338V1.81488C9.28134 1.6951 9.24051 1.67843 9.13964 1.62424V1.58053C9.26766 1.54208 9.42048 1.49066 9.43116 1.48244C9.45039 1.47154 9.46664 1.46866 9.48031 1.46866C9.49379 1.46866 9.49944 1.48511 9.49944 1.50701V2.55338C9.49944 2.64357 9.55939 2.64357 9.63569 2.64357H9.68196V2.71442C9.5892 2.71442 9.49378 2.70898 9.39589 2.70898C9.29779 2.70898 9.19959 2.71165 9.09892 2.71442V2.64357H9.09891ZM9.39043 1.04901C9.31949 1.04901 9.25697 0.98362 9.25697 0.912761C9.25697 0.844484 9.32237 0.781656 9.39043 0.781656C9.46107 0.781656 9.524 0.839147 9.524 0.912761C9.524 0.986386 9.46386 1.04901 9.39043 1.04901ZM9.94086 1.83113C9.94086 1.73036 9.91072 1.70321 9.78291 1.65138V1.59967C9.90004 1.56152 10.0116 1.52605 10.1425 1.46867C10.1506 1.46867 10.1586 1.47422 10.1586 1.49592V1.67318C10.3142 1.56152 10.4478 1.46866 10.6306 1.46866C10.862 1.46866 10.9437 1.6377 10.9437 1.85024V2.55339C10.9437 2.64357 11.0037 2.64357 11.0801 2.64357H11.1291V2.71442C11.0335 2.71442 10.9382 2.70898 10.8403 2.70898C10.7421 2.70898 10.6439 2.71165 10.5459 2.71442V2.64357H10.5948C10.6713 2.64357 10.7255 2.64357 10.7255 2.55339V1.84767C10.7255 1.69209 10.6306 1.6159 10.475 1.6159C10.3879 1.6159 10.2489 1.68676 10.1586 1.7468V2.55337C10.1586 2.64356 10.2189 2.64356 10.2953 2.64356H10.3442V2.71441C10.2489 2.71441 10.1534 2.70896 10.0553 2.70896C9.95729 2.70896 9.859 2.71164 9.76099 2.71441V2.64356H9.81014C9.88644 2.64356 9.94084 2.64356 9.94084 2.55337V1.83113H9.94086ZM11.3363 1.96212C11.3307 1.9867 11.3307 2.02752 11.3363 2.12027C11.3524 2.37908 11.519 2.59164 11.7367 2.59164C11.8867 2.59164 12.0042 2.50989 12.1049 2.40912L12.1429 2.44737C12.0175 2.61354 11.8622 2.75523 11.6388 2.75523C11.2054 2.75523 11.1182 2.33538 11.1182 2.1611C11.1182 1.6268 11.4779 1.46865 11.6685 1.46865C11.8894 1.46865 12.1266 1.60758 12.1292 1.89651C12.1292 1.91307 12.1292 1.92921 12.1266 1.94577L12.102 1.96212H11.3363ZM11.8188 1.87483C11.8867 1.87483 11.8948 1.83935 11.8948 1.80676C11.8948 1.66772 11.8104 1.55595 11.6577 1.55595C11.4916 1.55595 11.3771 1.67842 11.3444 1.87483H11.8188ZM12.192 2.64357H12.2656C12.3417 2.64357 12.3962 2.64357 12.3962 2.55338V1.78762C12.3962 1.7032 12.2955 1.68675 12.2545 1.66495V1.62423C12.4535 1.5396 12.5625 1.46865 12.5873 1.46865C12.6035 1.46865 12.6115 1.47687 12.6115 1.50423V1.74947H12.6173C12.6852 1.64325 12.7999 1.46865 12.9659 1.46865C13.0341 1.46865 13.1212 1.51492 13.1212 1.61312C13.1212 1.68675 13.0696 1.75235 12.9933 1.75235C12.9085 1.75235 12.9085 1.68675 12.8133 1.68675C12.7669 1.68675 12.6144 1.74947 12.6144 1.91307V2.55338C12.6144 2.64356 12.6688 2.64356 12.7452 2.64356H12.8977V2.71442C12.7477 2.71163 12.6337 2.70897 12.5163 2.70897C12.4046 2.70897 12.2901 2.71164 12.192 2.71442V2.64357H12.192ZM13.2412 2.33538C13.2767 2.51533 13.3856 2.66804 13.5847 2.66804C13.7451 2.66804 13.8051 2.56994 13.8051 2.47452C13.8051 2.15287 13.2112 2.25642 13.2112 1.81766C13.2112 1.66496 13.3339 1.46866 13.6336 1.46866C13.7207 1.46866 13.8378 1.49334 13.944 1.54794L13.9634 1.82569H13.9005C13.8734 1.65416 13.7781 1.55597 13.6035 1.55597C13.4945 1.55597 13.391 1.6187 13.391 1.73582C13.391 2.05499 14.0232 1.95659 14.0232 2.38445C14.0232 2.5643 13.8787 2.75525 13.5544 2.75525C13.4454 2.75525 13.3174 2.7171 13.2221 2.6627L13.192 2.34919L13.2412 2.33538ZM16.484 1.30515H16.416C16.3642 0.986386 16.138 0.85816 15.8329 0.85816C15.5193 0.85816 15.0641 1.06792 15.0641 1.72202C15.0641 2.27297 15.4568 2.66802 15.8764 2.66802C16.1461 2.66802 16.3697 2.48273 16.4242 2.19646L16.4868 2.21271L16.4242 2.61064C16.3098 2.6817 16.0018 2.75523 15.8218 2.75523C15.1842 2.75523 14.781 2.34362 14.781 1.73034C14.781 1.17158 15.2797 0.770756 15.8137 0.770756C16.0344 0.770756 16.247 0.841913 16.4568 0.915538L16.484 1.30515ZM16.5823 2.64357H16.6339C16.7103 2.64357 16.765 2.64357 16.765 2.55338V1.03545C16.765 0.85817 16.7241 0.85271 16.6204 0.822787V0.779188C16.7294 0.743826 16.8439 0.694664 16.9012 0.661872C16.9309 0.645625 16.9529 0.631836 16.9609 0.631836C16.9776 0.631836 16.983 0.648299 16.983 0.670191V2.55338C16.983 2.64357 17.0429 2.64357 17.1193 2.64357H17.1652V2.71442C17.073 2.71442 16.9776 2.70897 16.8794 2.70897C16.7814 2.70897 16.6833 2.71165 16.5823 2.71442V2.64357H16.5823ZM18.3321 2.56429C18.3321 2.61354 18.3619 2.61622 18.4082 2.61622C18.441 2.61622 18.4817 2.61354 18.5173 2.61354V2.67092C18.4 2.68172 18.1765 2.73899 18.1247 2.75524L18.111 2.747V2.52645C17.9477 2.65991 17.8222 2.75524 17.6285 2.75524C17.4814 2.75524 17.3288 2.65991 17.3288 2.43112V1.73312C17.3288 1.66227 17.318 1.59409 17.1656 1.58052V1.5287C17.2638 1.52603 17.4814 1.50967 17.517 1.50967C17.5472 1.50967 17.5472 1.5287 17.5472 1.58865V2.29167C17.5472 2.37364 17.5472 2.60797 17.7841 2.60797C17.8768 2.60797 17.9993 2.53712 18.1137 2.44201V1.70843C18.1137 1.65414 17.983 1.62422 17.8851 1.59685V1.5478C18.13 1.53135 18.2829 1.50966 18.31 1.50966C18.3321 1.50966 18.3321 1.52868 18.3321 1.55881V2.56429H18.3321ZM18.8743 1.66496C18.9832 1.5723 19.1304 1.46866 19.2804 1.46866C19.5966 1.46866 19.7871 1.74424 19.7871 2.04109C19.7871 2.39812 19.5256 2.75523 19.1357 2.75523C18.9342 2.75523 18.8279 2.68973 18.757 2.6599L18.6753 2.72242L18.6183 2.69261C18.6424 2.53178 18.6563 2.37364 18.6563 2.20747V1.03543C18.6563 0.85817 18.6152 0.85271 18.5117 0.822787V0.779188C18.6211 0.743826 18.7352 0.694664 18.7925 0.661862C18.8225 0.645615 18.8442 0.631836 18.8526 0.631836C18.8689 0.631836 18.8743 0.648299 18.8743 0.670191V1.66495H18.8743V1.66496ZM18.8743 2.40624C18.8743 2.50989 18.9723 2.68449 19.1549 2.68449C19.4466 2.68449 19.5691 2.39812 19.5691 2.15546C19.5691 1.86116 19.3459 1.61592 19.1332 1.61592C19.0322 1.61592 18.9478 1.68142 18.8743 1.74424V2.40624H18.8743ZM7.11719 4.29908H7.13806C7.19133 4.29908 7.24768 4.2919 7.24768 4.21466V3.4377C7.24768 3.36036 7.19133 3.35307 7.13806 3.35307H7.11719V3.30854C7.17508 3.30854 7.26403 3.31441 7.33693 3.31441C7.41097 3.31441 7.49981 3.30854 7.56953 3.30854V3.35307H7.54865C7.49549 3.35307 7.43905 3.36037 7.43905 3.4377V4.21466C7.43905 4.2919 7.49549 4.29908 7.54865 4.29908H7.56953V4.34382C7.49837 4.34382 7.40922 4.33796 7.33528 4.33796C7.2626 4.33796 7.17508 4.34382 7.11719 4.34382V4.29908Z" fill="white"/>
<path d="M7.57003 4.35014C7.49836 4.35014 7.40953 4.34417 7.33569 4.34417C7.26319 4.34417 7.17601 4.35014 7.11769 4.35014H7.11133V4.29276H7.13847C7.19224 4.29152 7.2412 4.28721 7.24171 4.21471V3.43773C7.2412 3.36524 7.19225 3.3604 7.13847 3.35938H7.11133V3.302H7.11769C7.17601 3.302 7.26485 3.30786 7.33733 3.30786C7.41116 3.30786 7.49991 3.302 7.57003 3.302H7.57662V3.35938H7.54926C7.49548 3.36041 7.44622 3.36524 7.44592 3.43773V4.21471C7.44622 4.28721 7.49547 4.29152 7.54926 4.29276H7.57661V4.35014H7.57003ZM7.56366 4.33748V4.30581H7.54927C7.49631 4.30581 7.43328 4.29665 7.43296 4.21471V3.43773C7.43327 3.35578 7.4963 3.34653 7.54927 3.34653H7.56366V3.31506C7.49517 3.31506 7.40931 3.32082 7.33733 3.32082C7.2669 3.32082 7.18165 3.31547 7.12427 3.31506V3.34653H7.13846C7.19132 3.34653 7.25456 3.35578 7.25456 3.43773V4.21471C7.25456 4.29667 7.19132 4.30581 7.13846 4.30581H7.12427V4.33748C7.18165 4.33686 7.26545 4.33151 7.33569 4.33151C7.40787 4.33151 7.49373 4.33707 7.56366 4.33748ZM8.58875 4.05151L8.59172 4.04863V3.49254C8.59172 3.37079 8.5071 3.35311 8.46268 3.35311H8.42997V3.30857C8.49979 3.30857 8.56797 3.31443 8.63758 3.31443C8.69834 3.31443 8.75943 3.30857 8.8201 3.30857V3.35311H8.79789C8.73547 3.35311 8.66575 3.36492 8.66575 3.54138V4.21635C8.66575 4.26818 8.66729 4.32 8.67459 4.36597H8.61814L7.85465 3.51466V4.12577C7.85465 4.25481 7.87964 4.29913 7.99398 4.29913H8.01906V4.34386C7.95542 4.34386 7.89176 4.338 7.8279 4.338C7.76137 4.338 7.69311 4.34386 7.62627 4.34386V4.29913H7.64704C7.74935 4.29913 7.78042 4.22961 7.78042 4.11106V3.48638C7.78042 3.4034 7.71204 3.35312 7.64561 3.35312H7.62628V3.30859C7.68262 3.30859 7.74042 3.31444 7.79666 3.31444C7.84118 3.31444 7.88427 3.30859 7.92869 3.30859L8.58875 4.05151Z" fill="white"/>
<path d="M8.67407 4.37262L8.6129 4.37035L7.86039 3.53159V4.12593C7.86214 4.25488 7.88178 4.2915 7.99345 4.29293H8.02523V4.3503H8.01865C7.95448 4.3503 7.89063 4.34434 7.82738 4.34434C7.76095 4.34434 7.69288 4.3503 7.62563 4.3503H7.61915V4.29293H7.6465C7.7445 4.29241 7.77247 4.22948 7.7736 4.11123V3.48665C7.77338 3.40768 7.70861 3.35976 7.64506 3.35956H7.61914V3.30239H7.62562C7.68229 3.30239 7.74037 3.30804 7.796 3.30804C7.84012 3.30804 7.88311 3.30239 7.93307 3.30455L8.5848 4.03823V3.49283C8.58397 3.37479 8.50532 3.3606 8.46212 3.35956H8.42284V3.30239H8.42942C8.49946 3.30239 8.56773 3.30804 8.63703 3.30804C8.69739 3.30804 8.75816 3.30239 8.81945 3.30239H8.82593V3.35955H8.79734C8.73616 3.36131 8.67333 3.36664 8.67159 3.54155V4.21641C8.67159 4.26824 8.67312 4.32006 8.68033 4.365L8.68177 4.37261H8.67407V4.37262ZM8.61773 4.35955H8.66678C8.66011 4.31502 8.65897 4.26567 8.65897 4.21641V3.54155C8.65897 3.36356 8.73352 3.34671 8.79737 3.34671H8.813V3.31523C8.7546 3.31564 8.69598 3.32099 8.63707 3.32099C8.56921 3.32099 8.50319 3.31564 8.43605 3.31523L8.43594 3.34671H8.46216C8.50772 3.34671 8.59769 3.36706 8.59769 3.49282L8.59563 4.05322L8.59265 4.05632L8.58762 4.06095L7.92818 3.31523C7.88418 3.31523 7.84119 3.32099 7.79605 3.32099C7.74165 3.32099 7.68602 3.31564 7.63224 3.31523L7.63193 3.3467H7.64509C7.71471 3.3467 7.78617 3.39986 7.78617 3.48664V4.11122C7.78617 4.22977 7.75317 4.30566 7.64653 4.30607L7.63224 4.30566V4.33764C7.69651 4.33702 7.76252 4.33167 7.8274 4.33167C7.88931 4.33167 7.9509 4.33703 8.01218 4.33764V4.30607H7.99347C7.87675 4.30566 7.84777 4.25487 7.84765 4.12591V3.49815L8.61773 4.35955ZM8.58821 4.05158L8.59294 4.04726L8.58821 4.05158ZM8.58482 4.04871V4.0482L8.58358 4.04716L8.58482 4.04871ZM9.04159 3.38279C8.93022 3.38279 8.92601 3.40953 8.9038 3.5177H8.85927C8.86513 3.47626 8.87254 3.43482 8.87706 3.39163C8.88302 3.35009 8.8859 3.30874 8.8859 3.26577H8.92158C8.93351 3.31029 8.97053 3.30875 9.01074 3.30875H9.77567C9.81577 3.30875 9.8528 3.30731 9.85588 3.2627L9.89124 3.26866C9.88548 3.30875 9.87952 3.34876 9.875 3.38885C9.87232 3.42886 9.87232 3.46896 9.87232 3.50885L9.8277 3.52541C9.82461 3.4706 9.81721 3.38279 9.71798 3.38279H9.47479V4.17189C9.47479 4.28623 9.52673 4.2993 9.59767 4.2993H9.62595V4.34403C9.56816 4.34403 9.46421 4.33817 9.3843 4.33817C9.29537 4.33817 9.1914 4.34403 9.13351 4.34403V4.2993H9.16178C9.24353 4.2993 9.28487 4.29199 9.28487 4.17497V3.38279H9.04159Z" fill="white"/>
<path d="M9.62587 4.35002C9.56745 4.35002 9.4637 4.34405 9.384 4.34405C9.29516 4.34405 9.19142 4.35002 9.13321 4.35002H9.12704V4.29264H9.16149C9.24323 4.29069 9.27613 4.28966 9.27799 4.17469V3.38899H9.04128V3.37592H9.29085V4.17469C9.29085 4.29366 9.24294 4.30569 9.1615 4.30579H9.1397V4.33705C9.19821 4.33675 9.29795 4.3314 9.38401 4.3314C9.46135 4.3314 9.56047 4.33675 9.61908 4.33705V4.30579H9.59738C9.52571 4.30569 9.46802 4.28811 9.46802 4.1716V3.37592H9.71769C9.81723 3.37633 9.83018 3.46096 9.83348 3.51597L9.86545 3.50415C9.86545 3.46548 9.86566 3.42672 9.86833 3.38764C9.87265 3.34949 9.8781 3.31165 9.88365 3.27381L9.86102 3.27001C9.85414 3.3132 9.81249 3.31536 9.77516 3.31494H9.00272C8.96786 3.31494 8.92971 3.3133 8.91645 3.27187H8.89197C8.89182 3.31212 8.8889 3.35232 8.88322 3.39217C8.8789 3.4329 8.87212 3.47208 8.86656 3.51125H8.89835C8.91788 3.4079 8.93064 3.37438 9.04127 3.37593V3.38899C8.93165 3.39094 8.93393 3.40945 8.90975 3.51907L8.90863 3.52411H8.85156L8.85239 3.51639C8.85835 3.47485 8.86587 3.4335 8.87028 3.39032C8.87645 3.34919 8.87933 3.30806 8.87933 3.26548V3.25901H8.92632L8.92735 3.26363C8.93753 3.30106 8.96498 3.30127 9.00272 3.30189H9.77516C9.81651 3.30127 9.84652 3.30065 9.84909 3.26188L9.84971 3.25488L9.85639 3.25632L9.89825 3.26291L9.89731 3.26939C9.89135 3.30908 9.8855 3.34919 9.88118 3.38898C9.87819 3.42847 9.87819 3.46857 9.87819 3.50857V3.5132L9.87408 3.51484L9.82154 3.53396L9.82114 3.52532C9.81722 3.46959 9.81136 3.38897 9.71768 3.38897H9.48097V4.17159C9.48231 4.28347 9.52672 4.29118 9.59736 4.29262H9.63212V4.35L9.62587 4.35002ZM9.93836 4.29901H9.95923C10.0125 4.29901 10.0689 4.29182 10.0689 4.21458V3.43762C10.0689 3.36028 10.0125 3.35299 9.95923 3.35299H9.93836V3.30847C10.0286 3.30847 10.1831 3.31433 10.3074 3.31433C10.4322 3.31433 10.5862 3.30847 10.6869 3.30847C10.6845 3.37212 10.6858 3.47021 10.6902 3.53531L10.6455 3.54723C10.6384 3.45089 10.6206 3.37387 10.4648 3.37387H10.2589V3.76226H10.4351C10.5241 3.76226 10.5435 3.71197 10.5522 3.63167H10.5967C10.5938 3.68976 10.5922 3.74756 10.5922 3.80535C10.5922 3.8618 10.5938 3.91805 10.5967 3.9744L10.5522 3.98323C10.5435 3.8943 10.539 3.8365 10.4366 3.8365H10.2589V4.1819C10.2589 4.27845 10.3445 4.27845 10.4396 4.27845C10.6175 4.27845 10.696 4.26642 10.7405 4.09758L10.7821 4.10776C10.7626 4.18652 10.745 4.26498 10.7318 4.34375C10.6368 4.34375 10.4662 4.33789 10.3329 4.33789C10.1992 4.33789 10.0229 4.34375 9.93836 4.34375V4.29901Z" fill="white"/>
<path d="M10.7332 4.34968C10.638 4.34968 10.4675 4.3436 10.3343 4.3436C10.2007 4.3436 10.0245 4.34968 9.93986 4.34968H9.93359V4.2923H9.96064C10.0144 4.29148 10.0631 4.28675 10.0639 4.21425V3.43727C10.0632 3.36488 10.0144 3.36005 9.96064 3.35892H9.93359V3.30176H9.93986C10.0303 3.30176 10.1846 3.30741 10.3089 3.30741C10.4336 3.30741 10.5875 3.30176 10.6884 3.30176H10.6951L10.6948 3.30834C10.6938 3.33065 10.6934 3.35697 10.6934 3.38495C10.6934 3.43625 10.6948 3.49229 10.6978 3.53456L10.698 3.53991L10.6931 3.54136L10.6409 3.55493L10.6406 3.54732C10.6319 3.45107 10.619 3.38125 10.4664 3.37981H10.2666L10.2663 3.75524H10.4366C10.522 3.75442 10.5373 3.71071 10.5474 3.63082L10.5479 3.62496H10.6048L10.6047 3.63163C10.6018 3.68942 10.5999 3.74721 10.5999 3.805C10.5999 3.86114 10.6018 3.91739 10.6047 3.97384L10.6048 3.97909L10.5994 3.98032L10.5479 3.9906L10.5474 3.98361C10.5372 3.89312 10.5365 3.84356 10.438 3.84244L10.2666 3.84232V4.18155C10.2667 4.27163 10.3444 4.27112 10.4411 4.27163C10.6196 4.2706 10.6911 4.26197 10.7359 4.09538L10.7373 4.08942L10.7436 4.09055L10.7911 4.10278L10.7896 4.10896C10.7705 4.18752 10.7527 4.26587 10.7395 4.34442L10.7382 4.34968H10.7332ZM10.7277 4.33672C10.7406 4.26195 10.7575 4.1869 10.7758 4.11224L10.7464 4.10483C10.702 4.27081 10.616 4.2856 10.441 4.28448C10.3477 4.28448 10.2541 4.28448 10.2537 4.18154V3.82967H10.438C10.5415 3.82853 10.5521 3.89105 10.5594 3.97548L10.5915 3.9688C10.5886 3.91424 10.5872 3.85962 10.5873 3.80499C10.5873 3.74915 10.5886 3.69363 10.5915 3.63779H10.5594C10.5512 3.71501 10.527 3.76931 10.4366 3.76828H10.2537V3.36684H10.4664C10.6206 3.3658 10.6462 3.4454 10.6528 3.53866L10.6848 3.53003C10.6822 3.48817 10.6804 3.4345 10.6804 3.38494C10.6804 3.35954 10.681 3.33558 10.6819 3.3146C10.5811 3.31501 10.431 3.32036 10.3089 3.32036C10.1871 3.32036 10.037 3.31501 9.94624 3.3146V3.34607H9.96063C10.0135 3.34607 10.0766 3.35532 10.0768 3.43727V4.21425C10.0766 4.296 10.0135 4.30505 9.96063 4.30546H9.94624V4.33672C10.0327 4.33661 10.204 4.33106 10.3343 4.33106C10.4651 4.33106 10.6321 4.33661 10.7277 4.33672ZM10.9837 3.46524C10.9837 3.35707 10.9245 3.35265 10.8783 3.35265H10.8517V3.30802C10.8992 3.30802 10.991 3.31398 11.0815 3.31398C11.1704 3.31398 11.2417 3.30802 11.3202 3.30802C11.5069 3.30802 11.6732 3.35851 11.6732 3.56931C11.6732 3.70247 11.5842 3.78411 11.4671 3.83028L11.7206 4.20972C11.7621 4.27244 11.7916 4.29002 11.8644 4.29865V4.34339C11.8155 4.34339 11.768 4.33753 11.7191 4.33753C11.6732 4.33753 11.6255 4.34339 11.5798 4.34339C11.4656 4.19357 11.3675 4.03337 11.2712 3.86267H11.1736V4.18021C11.1736 4.29455 11.2268 4.29866 11.295 4.29866H11.3217V4.3434C11.237 4.3434 11.1513 4.33754 11.0667 4.33754C10.9954 4.33754 10.9257 4.3434 10.8517 4.3434V4.29866H10.8783C10.9334 4.29866 10.9837 4.27378 10.9837 4.21877V3.46524ZM11.1736 3.80931H11.246C11.3944 3.80931 11.4743 3.75297 11.4743 3.57794C11.4743 3.44612 11.3899 3.36149 11.2577 3.36149C11.2132 3.36149 11.1943 3.36612 11.1736 3.36745V3.80931H11.1736Z" fill="white"/>
<path d="M11.863 4.34986C11.8133 4.34986 11.7661 4.3439 11.7174 4.3439C11.6722 4.3439 11.6248 4.34986 11.5731 4.34739C11.4594 4.19819 11.3619 4.03891 11.2661 3.86945H11.1785V4.1802C11.18 4.29177 11.2249 4.29085 11.2934 4.29249H11.3267V4.34987H11.3201C11.2353 4.34987 11.1493 4.34391 11.0651 4.34391C10.9942 4.34391 10.9247 4.34987 10.8502 4.34987H10.8438V4.29249H10.8769C10.9303 4.29218 10.9754 4.26894 10.9756 4.21897V3.46546C10.9745 3.36016 10.9229 3.36077 10.8769 3.35924H10.8438V3.30176H10.8502C10.8983 3.30176 10.9898 3.30761 11.0801 3.30761C11.1686 3.30761 11.2399 3.30176 11.3188 3.30176C11.5057 3.30217 11.6778 3.35379 11.6783 3.56911C11.6783 3.70309 11.5898 3.78668 11.4753 3.83338L11.7245 4.20643C11.7659 4.26792 11.7917 4.28325 11.8639 4.29249L11.8694 4.29332V4.34987H11.863V4.34986ZM11.172 3.85648H11.2734L11.2751 3.85977C11.3718 4.03016 11.4692 4.19016 11.5784 4.3372C11.6236 4.3372 11.6712 4.33114 11.7174 4.33114C11.7648 4.33114 11.8104 4.33628 11.8566 4.337V4.3045C11.787 4.29587 11.7544 4.27509 11.7139 4.2135L11.4559 3.82737L11.4632 3.82439C11.5792 3.77874 11.6651 3.69946 11.6652 3.56907C11.6651 3.36331 11.5053 3.31561 11.3188 3.31479C11.2406 3.31479 11.1694 3.32065 11.0801 3.32065C10.993 3.32065 10.905 3.3152 10.8565 3.31479V3.34625H10.8769C10.9229 3.34636 10.9885 3.35396 10.9885 3.46544V4.21895C10.9885 4.27849 10.9327 4.30563 10.8769 4.30574H10.8565V4.33699C10.9279 4.33678 10.9954 4.33114 11.0651 4.33114C11.148 4.33114 11.2316 4.33679 11.3137 4.33699V4.30574H11.2934C11.2258 4.30562 11.1655 4.2972 11.1655 4.18018V3.85648H11.172H11.172ZM11.172 3.81576H11.1655V3.36168L11.1712 3.36116C11.1914 3.35963 11.2115 3.3554 11.2563 3.3554C11.3914 3.3554 11.4792 3.44322 11.4794 3.57843C11.479 3.7555 11.3941 3.81565 11.2446 3.81575H11.172V3.81576ZM11.2446 3.80302C11.3914 3.80178 11.4653 3.75079 11.4668 3.57844C11.466 3.44887 11.3855 3.36846 11.2563 3.36795C11.2162 3.36795 11.1974 3.37165 11.1785 3.37331V3.80302H11.2446ZM12.8698 4.05124L12.8725 4.04836V3.49227C12.8725 3.37052 12.788 3.35283 12.7436 3.35283H12.7111V3.3083C12.7807 3.3083 12.8488 3.31416 12.9186 3.31416C12.9795 3.31416 13.0401 3.3083 13.1013 3.3083V3.35283H13.0789C13.0166 3.35283 12.9469 3.36465 12.9469 3.54111V4.21607C12.9469 4.26791 12.9484 4.31972 12.9557 4.3657H12.8994L12.1358 3.51438V4.12549C12.1358 4.25454 12.161 4.29886 12.2751 4.29886H12.3003V4.34359C12.2367 4.34359 12.1728 4.33773 12.1092 4.33773C12.0422 4.33773 11.9741 4.34359 11.9074 4.34359V4.29886H11.928C12.0304 4.29886 12.0616 4.22934 12.0616 4.11079V3.48611C12.0616 3.40313 11.9934 3.35284 11.9268 3.35284H11.9074V3.30832C11.9636 3.30832 12.0217 3.31417 12.0779 3.31417C12.1221 3.31417 12.1653 3.30832 12.2098 3.30832L12.8698 4.05124Z" fill="white"/>
<path d="M12.9573 4.37246L12.8963 4.3704L12.1437 3.53155V4.12579C12.1454 4.25484 12.165 4.29143 12.2768 4.29288H12.3082V4.35026H12.3017C12.2376 4.35026 12.174 4.34418 12.1105 4.34418C12.0443 4.34418 11.9758 4.35026 11.909 4.35026H11.9023V4.29288H11.9296C12.0275 4.29247 12.0556 4.22944 12.0565 4.11077V3.48651C12.0564 3.40753 11.9917 3.35962 11.9284 3.3595H11.9023V3.30214H11.909C11.9656 3.30214 12.0236 3.30799 12.0795 3.30799C12.1231 3.30799 12.1661 3.30214 12.2159 3.30418L12.8677 4.03818V3.49256C12.8673 3.37472 12.7883 3.36012 12.7452 3.35951H12.706V3.30214H12.7125C12.7827 3.30214 12.8509 3.30799 12.9202 3.30799C12.9807 3.30799 13.0415 3.30214 13.1025 3.30214H13.109V3.35951H13.0805C13.0194 3.36116 12.9563 3.3666 12.9548 3.54152V4.21637C12.9548 4.26819 12.9561 4.31961 12.9636 4.36526L12.9645 4.37246H12.9573ZM12.901 4.3595H12.9497C12.9433 4.31498 12.9418 4.26562 12.9418 4.21637V3.54151C12.9419 3.3635 13.017 3.34706 13.0805 3.34655H13.0961V3.31519C13.0379 3.3156 12.9792 3.32094 12.9202 3.32094C12.8522 3.32094 12.786 3.3156 12.7189 3.31519V3.34655H12.7452C12.7909 3.34706 12.8807 3.36701 12.8807 3.49256L12.8787 4.05318L12.8758 4.05627L12.8713 4.061L12.2114 3.3152C12.1673 3.3152 12.1243 3.32095 12.0795 3.32095C12.0246 3.32095 11.9692 3.31561 11.9152 3.3152V3.34656H11.9284C11.998 3.34707 12.0694 3.39962 12.0694 3.48651V4.11076C12.0694 4.22984 12.0359 4.30562 11.9296 4.30603L11.9152 4.30593V4.33729C11.9793 4.33699 12.0454 4.33164 12.1105 4.33164C12.1727 4.33164 12.2343 4.33699 12.2956 4.33729V4.30603H12.2769C12.16 4.30593 12.1308 4.25484 12.1306 4.12578V3.49832L12.901 4.3595ZM12.8714 4.05154L12.8759 4.04732L12.8714 4.05154ZM12.8677 4.04876V4.04823L12.8665 4.04711L12.8677 4.04876ZM13.3413 4.13184C13.3263 4.18213 13.3084 4.221 13.3084 4.24742C13.3084 4.29205 13.3709 4.29925 13.4196 4.29925H13.4362V4.34398C13.3767 4.34078 13.3162 4.33812 13.2564 4.33812C13.2031 4.33812 13.15 4.3408 13.0965 4.34398V4.29925H13.1055C13.1632 4.29925 13.2123 4.2652 13.2342 4.2028L13.4717 3.52227C13.4909 3.46736 13.5178 3.39322 13.5268 3.33822C13.574 3.32208 13.6334 3.29246 13.6615 3.27457C13.6661 3.27304 13.6687 3.27148 13.6733 3.27148C13.6777 3.27148 13.6806 3.27148 13.6839 3.27611C13.6882 3.28783 13.6925 3.3013 13.6973 3.31313L13.97 4.08886C13.9878 4.14069 14.0054 4.19549 14.0247 4.24012C14.0425 4.28166 14.0738 4.29925 14.1228 4.29925H14.1316V4.34398C14.0649 4.34079 13.998 4.33813 13.9271 4.33813C13.8544 4.33813 13.78 4.3408 13.7045 4.34398V4.29925H13.7209C13.7548 4.29925 13.8128 4.29349 13.8128 4.25637C13.8128 4.23714 13.7995 4.19714 13.7829 4.14953L13.7252 3.9775H13.3887L13.3413 4.13184ZM13.5577 3.47477H13.5547L13.4168 3.89452H13.6939L13.5577 3.47477Z" fill="white"/>
<path d="M14.131 4.3503C14.0642 4.34732 13.9975 4.34423 13.9269 4.34423C13.8542 4.34423 13.7803 4.34732 13.7044 4.3503L13.6977 4.35072V4.29272H13.7206C13.7549 4.29272 13.8059 4.28491 13.8059 4.25643C13.8063 4.23956 13.793 4.19884 13.7766 4.15165L13.7202 3.98394H13.3931L13.347 4.13375C13.332 4.18434 13.3142 4.22352 13.3143 4.24768C13.3148 4.28389 13.3702 4.29272 13.4194 4.29272H13.4422V4.35072L13.4355 4.3503C13.3762 4.34732 13.3156 4.34423 13.2565 4.34423C13.2034 4.34423 13.1499 4.34732 13.0967 4.3503L13.0898 4.35072V4.29272H13.1052C13.1604 4.29252 13.2065 4.26116 13.2278 4.2008L13.4653 3.52019C13.4847 3.46517 13.5114 3.39124 13.5243 3.33211C13.5708 3.31638 13.6303 3.28656 13.6589 3.26846C13.663 3.26713 13.6671 3.26507 13.6732 3.26507C13.6768 3.26497 13.6848 3.26589 13.6895 3.27372C13.6938 3.28594 13.6984 3.29912 13.7029 3.31115L13.976 4.08679C13.9935 4.13882 14.0112 4.19363 14.0305 4.23742C14.0477 4.27702 14.075 4.29254 14.1227 4.29274H14.1378V4.35074L14.131 4.3503ZM13.7107 4.33704C13.7841 4.33447 13.856 4.33159 13.9269 4.33159C13.9957 4.33159 14.0602 4.33447 14.1247 4.33704V4.30608H14.1226C14.0718 4.30639 14.0368 4.28645 14.0186 4.24275C13.9992 4.19771 13.9811 4.1427 13.9638 4.09077L13.6907 3.31524C13.6862 3.30341 13.6819 3.28994 13.678 3.27946C13.6768 3.27802 13.6771 3.27802 13.6758 3.27802H13.6732C13.6701 3.27802 13.6683 3.27894 13.6645 3.27997C13.6359 3.29858 13.5764 3.32768 13.5325 3.3393C13.5233 3.39545 13.4967 3.46948 13.4774 3.52439L13.2401 4.20511C13.2174 4.26948 13.1655 4.30619 13.1052 4.30608H13.1028V4.33704C13.1536 4.33447 13.205 4.33159 13.2565 4.33159C13.3138 4.33159 13.3724 4.33447 13.4289 4.33704V4.30608H13.4194C13.3712 4.30546 13.3037 4.30001 13.3019 4.24767C13.302 4.21806 13.3202 4.18012 13.3346 4.13005L13.3411 4.13199L13.3346 4.12983L13.3835 3.97127H13.7292L13.7887 4.14753C13.8054 4.19514 13.8189 4.23462 13.8189 4.25642C13.8168 4.30198 13.7542 4.30516 13.7206 4.30609H13.7107V4.33704H13.7107ZM13.4076 3.90094L13.5496 3.46834H13.5576V3.47482L13.556 3.47513L13.5576 3.47482V3.46834H13.562L13.7028 3.90094H13.4076ZM13.4254 3.88808H13.6849L13.5558 3.49065L13.4254 3.88808ZM13.5511 3.47668L13.5545 3.47555L13.5511 3.47668ZM14.1966 3.38279C14.0853 3.38279 14.0809 3.40953 14.0586 3.5177H14.014C14.0199 3.47626 14.0274 3.43482 14.0321 3.39163C14.038 3.35009 14.0407 3.30874 14.0407 3.26577H14.0765C14.0883 3.31029 14.1255 3.30875 14.1653 3.30875H14.9307C14.9705 3.30875 15.0075 3.30731 15.0106 3.2627L15.046 3.26866C15.0404 3.30875 15.0345 3.34876 15.03 3.38885C15.0268 3.42886 15.0268 3.46896 15.0268 3.50885L14.9824 3.52541C14.9796 3.4706 14.9722 3.38279 14.8728 3.38279H14.6296V4.17189C14.6296 4.28623 14.6816 4.2993 14.7526 4.2993H14.7807V4.34403C14.723 4.34403 14.6193 4.33817 14.5391 4.33817C14.4503 4.33817 14.3463 4.34403 14.2885 4.34403V4.2993H14.3166C14.3983 4.2993 14.4399 4.29199 14.4399 4.17497V3.38279H14.1966Z" fill="white"/>
<path d="M14.78 4.35013C14.7218 4.35013 14.6179 4.34417 14.5383 4.34417C14.4497 4.34417 14.3458 4.35013 14.2877 4.35013H14.2811V4.29275H14.3158C14.3975 4.2908 14.4303 4.28977 14.4324 4.1748L14.4322 3.3891H14.1958V3.37603H14.4452V4.1748C14.4452 4.29377 14.3972 4.30549 14.3158 4.3058H14.294V4.33747C14.3527 4.33685 14.4522 4.33151 14.5383 4.33151C14.6157 4.33151 14.7149 4.33687 14.7735 4.33747V4.3058H14.7516C14.6803 4.30549 14.6225 4.28832 14.6223 4.17171V3.37603H14.872C14.9715 3.37644 14.9846 3.46107 14.9874 3.51608L15.0198 3.50426C15.0198 3.4656 15.0199 3.42683 15.0227 3.38796C15.0268 3.34981 15.0324 3.31177 15.0378 3.27392L15.0154 3.27011C15.0086 3.3133 14.9668 3.31567 14.9299 3.31505H14.157C14.1221 3.31546 14.0842 3.3134 14.0707 3.27176H14.0465C14.0461 3.31289 14.0433 3.35279 14.0374 3.39228C14.0335 3.4331 14.0262 3.47238 14.0207 3.51135H14.0524C14.0721 3.408 14.0849 3.37448 14.1958 3.37603V3.38909C14.0859 3.39095 14.0883 3.40956 14.064 3.51917L14.0629 3.52421H14.0057L14.0067 3.51679C14.0128 3.47495 14.0202 3.43361 14.0246 3.39073C14.0306 3.34929 14.0335 3.30816 14.0335 3.26559V3.25911H14.0804L14.0816 3.26374C14.092 3.30116 14.119 3.30137 14.157 3.30199L14.1645 3.30219H14.9299C14.9708 3.30138 15.0007 3.30075 15.0033 3.2621L15.0037 3.255L15.0107 3.25645L15.0527 3.26304L15.0516 3.26951C15.0456 3.30921 15.0399 3.34931 15.0354 3.3891C15.0324 3.42859 15.0324 3.46879 15.0324 3.50869V3.51332L15.0282 3.51496L14.9756 3.53409L14.9753 3.52544C14.9715 3.46972 14.9657 3.38909 14.872 3.38909H14.6352V4.17171C14.6367 4.28359 14.681 4.2913 14.7516 4.29274H14.7863V4.35012L14.78 4.35013ZM15.1 4.29912H15.1208C15.1744 4.29912 15.2304 4.29193 15.2304 4.2147V3.43773C15.2304 3.36039 15.1744 3.3531 15.1208 3.3531H15.1V3.30858C15.1579 3.30858 15.2468 3.31444 15.3192 3.31444C15.3937 3.31444 15.4826 3.30858 15.5523 3.30858V3.3531H15.5316C15.4782 3.3531 15.4217 3.3604 15.4217 3.43773V4.2147C15.4217 4.29193 15.4782 4.29912 15.5316 4.29912H15.5523V4.34386C15.4811 4.34386 15.392 4.338 15.3181 4.338C15.2453 4.338 15.1579 4.34386 15.1 4.34386V4.29912Z" fill="white"/>
<path d="M15.5524 4.35014C15.4808 4.35014 15.392 4.34406 15.3181 4.34406C15.2456 4.34406 15.158 4.35014 15.1001 4.35014H15.0936V4.29276H15.1209C15.1744 4.29194 15.2236 4.28731 15.2238 4.21472V3.43774C15.2236 3.36535 15.1744 3.3604 15.1209 3.35938H15.0936V3.30222H15.1001C15.158 3.30222 15.247 3.30788 15.3193 3.30788C15.3933 3.30788 15.4822 3.30222 15.5524 3.30222H15.5587V3.35938H15.5317C15.4775 3.36041 15.4288 3.36535 15.4281 3.43774V4.21472C15.4288 4.28731 15.4775 4.29194 15.5317 4.29276H15.5587V4.35014H15.5524ZM15.5458 4.33718V4.30581H15.5317C15.4785 4.30581 15.4156 4.29646 15.4156 4.21472V3.43774C15.4156 3.35579 15.4785 3.34653 15.5317 3.34653H15.5458V3.31507C15.4773 3.31548 15.3916 3.32082 15.3193 3.32082C15.2491 3.32082 15.1641 3.31548 15.1066 3.31507V3.34653H15.1209C15.1736 3.34653 15.2368 3.35579 15.237 3.43774V4.21472C15.2368 4.29645 15.1736 4.30581 15.1209 4.30581H15.1066V4.33718C15.1638 4.33656 15.2477 4.33152 15.3181 4.33152C15.39 4.33152 15.4758 4.33688 15.5458 4.33718H15.5458ZM16.1437 3.28638C16.4598 3.28638 16.7118 3.48237 16.7118 3.79815C16.7118 4.13934 16.4671 4.36607 16.1515 4.36607C15.8368 4.36607 15.5968 4.15248 15.5968 3.83363C15.5968 3.52525 15.8354 3.28638 16.1437 3.28638ZM16.1662 4.30077C16.4539 4.30077 16.504 4.04699 16.504 3.83075C16.504 3.61399 16.3871 3.35157 16.1409 3.35157C15.8813 3.35157 15.8043 3.58293 15.8043 3.78149C15.8043 4.04699 15.9259 4.30077 16.1662 4.30077Z" fill="white"/>
<path d="M15.5898 3.834C15.5905 3.52202 15.8319 3.28068 16.1434 3.28027V3.29301C15.8386 3.29301 15.6027 3.52881 15.6024 3.83399C15.6031 4.14926 15.8397 4.35965 16.1511 4.35975C16.4637 4.35965 16.7048 4.1361 16.7053 3.79822C16.705 3.48644 16.4569 3.29343 16.1434 3.29301V3.28027C16.4619 3.28048 16.7173 3.47842 16.7179 3.79822C16.7176 4.14299 16.4697 4.3721 16.1511 4.37271C15.834 4.37209 15.5905 4.15636 15.5899 3.83399H15.5898V3.834ZM15.7976 3.78187C15.798 3.58239 15.8759 3.34526 16.1406 3.34526C16.3923 3.34589 16.5099 3.61324 16.5103 3.83112C16.5099 4.04737 16.459 4.30733 16.1659 4.30733V4.29477C16.4479 4.29437 16.4967 4.04737 16.4974 3.83112C16.4974 3.61612 16.3816 3.35874 16.1406 3.35842C15.8862 3.35873 15.8109 3.58434 15.8104 3.78187C15.8106 4.04603 15.931 4.29416 16.1659 4.29477V4.30733C15.9197 4.30701 15.798 4.04892 15.7976 3.78187ZM17.7107 4.05189L17.7137 4.04901V3.49292C17.7137 3.37117 17.629 3.35349 17.5845 3.35349H17.5524V3.30895C17.6219 3.30895 17.6901 3.31481 17.7596 3.31481C17.8205 3.31481 17.8813 3.30895 17.9422 3.30895V3.35349H17.9198C17.8577 3.35349 17.7878 3.3653 17.7878 3.54176V4.21673C17.7878 4.26856 17.7893 4.32038 17.7968 4.36635H17.7405L16.9767 3.51504V4.12614C16.9767 4.25519 17.0018 4.29951 17.116 4.29951H17.1414V4.34424C17.0775 4.34424 17.0139 4.33838 16.9501 4.33838C16.8834 4.33838 16.815 4.34424 16.7483 4.34424V4.29951H16.7691C16.8717 4.29951 16.9024 4.22999 16.9024 4.11144V3.48676C16.9024 3.40378 16.8345 3.3535 16.7676 3.3535H16.7483V3.30897C16.8046 3.30897 16.8625 3.31482 16.9187 3.31482C16.9633 3.31482 17.0062 3.30897 17.0508 3.30897L17.7107 4.05189Z" fill="white"/>
<path d="M17.7972 4.37234L17.7359 4.37018L16.9835 3.53141V4.12577C16.9851 4.25471 17.0047 4.29122 17.1161 4.29255H17.1482V4.35014H17.1417C17.0774 4.35014 17.0138 4.34417 16.9504 4.34417C16.8839 4.34417 16.8158 4.35014 16.7485 4.35014H16.7423V4.29255H16.7695C16.8673 4.29226 16.8953 4.22933 16.8966 4.11106V3.48639C16.8963 3.40741 16.8317 3.3595 16.7679 3.35939H16.7423V3.30222H16.7485C16.8054 3.30222 16.8631 3.30789 16.9191 3.30789C16.9631 3.30789 17.0059 3.30222 17.056 3.30439L17.7076 4.03807V3.49267C17.7071 3.37463 17.6282 3.36043 17.5848 3.3594H17.5458V3.30224H17.5525C17.6223 3.30224 17.6907 3.3079 17.7597 3.3079C17.8206 3.3079 17.881 3.30224 17.9425 3.30224H17.9489V3.3594H17.9201C17.8591 3.36115 17.796 3.3667 17.7947 3.54141V4.21627C17.7947 4.26809 17.7959 4.3198 17.8031 4.36515L17.8043 4.37235H17.7972V4.37234ZM17.7409 4.35938H17.7894C17.783 4.31486 17.7818 4.2655 17.7818 4.21625V3.54139C17.7818 3.36308 17.8566 3.34694 17.9201 3.34643H17.9362V3.31506C17.8777 3.31548 17.8191 3.32082 17.7597 3.32082C17.6923 3.32082 17.6259 3.31548 17.5588 3.31506V3.34643H17.5848C17.6308 3.34694 17.7202 3.36721 17.7202 3.49265L17.7186 4.05306L17.7158 4.05615L17.7111 4.06087L17.0512 3.31507C17.0075 3.31507 16.9641 3.32083 16.9191 3.32083C16.8645 3.32083 16.8089 3.31549 16.7549 3.31507V3.34644H16.768C16.8376 3.34695 16.9092 3.3995 16.9092 3.48639V4.11106C16.9092 4.22962 16.8761 4.30551 16.7695 4.30592L16.7549 4.30581V4.33718C16.8193 4.33687 16.8853 4.33153 16.9505 4.33153C17.0123 4.33153 17.0737 4.33687 17.1353 4.33718V4.30592H17.1161C16.9997 4.30581 16.9706 4.25471 16.9706 4.12576V3.49799L17.7409 4.35938ZM17.7111 4.05141L17.7158 4.0472L17.7111 4.05141ZM17.7076 4.04864V4.04811L17.7063 4.04699L17.7076 4.04864ZM18.1808 4.13172C18.1663 4.182 18.1483 4.22087 18.1483 4.2473C18.1483 4.29193 18.2107 4.29913 18.2594 4.29913H18.2759V4.34386C18.2166 4.34066 18.1557 4.33799 18.0964 4.33799C18.0428 4.33799 17.9897 4.34068 17.9365 4.34386V4.29913H17.9449C18.003 4.29913 18.0522 4.26508 18.0741 4.20267L18.3116 3.52215C18.3307 3.46724 18.3576 3.3931 18.3662 3.3381C18.4137 3.32195 18.473 3.29234 18.5014 3.27445C18.5057 3.27291 18.5086 3.27136 18.5132 3.27136C18.5176 3.27136 18.5204 3.27136 18.5233 3.27599C18.5279 3.28771 18.5325 3.30118 18.5369 3.31301L18.8096 4.08874C18.8274 4.14057 18.8451 4.19537 18.8646 4.24C18.8824 4.28154 18.9137 4.29913 18.9624 4.29913H18.9715V4.34386C18.9046 4.34067 18.8379 4.338 18.7666 4.338C18.6941 4.338 18.6199 4.34068 18.5442 4.34386V4.29913H18.5607C18.5945 4.29913 18.6527 4.29337 18.6527 4.25625C18.6527 4.23702 18.6392 4.19702 18.6227 4.14941L18.5651 3.97738H18.2284L18.1808 4.13172ZM18.3976 3.47465H18.3946L18.2565 3.8944H18.534L18.3976 3.47465Z" fill="white"/>
<path d="M18.9705 4.34967C18.9038 4.347 18.8372 4.34371 18.7663 4.34371C18.694 4.34371 18.6198 4.347 18.5441 4.34967L18.5375 4.35009V4.2923H18.56C18.5946 4.2923 18.6457 4.28428 18.6458 4.25579C18.6461 4.23892 18.6327 4.19852 18.6162 4.15101L18.5598 3.9833H18.2325L18.1867 4.13311C18.1719 4.18391 18.1542 4.22288 18.1545 4.24685C18.1545 4.28325 18.21 4.2923 18.2591 4.2923H18.2817V4.35009L18.2751 4.34967C18.2158 4.347 18.1551 4.34371 18.0961 4.34371C18.0429 4.34371 17.9896 4.347 17.9362 4.34967L17.9297 4.35009V4.2923H17.9446C17.9999 4.29208 18.0462 4.26032 18.0678 4.20016L18.3051 3.51955C18.324 3.46453 18.3508 3.3906 18.3639 3.33168C18.4105 3.31554 18.47 3.28592 18.4988 3.26781C18.5027 3.26648 18.5068 3.26473 18.5128 3.26473C18.5167 3.26432 18.5243 3.26524 18.5291 3.27337C18.5335 3.285 18.5378 3.29846 18.5427 3.31049L18.8154 4.08613C18.8331 4.13816 18.8509 4.19296 18.8701 4.23708C18.8875 4.27636 18.9146 4.29189 18.9619 4.2923H18.9773V4.35009L18.9705 4.34967ZM18.5503 4.3366C18.6236 4.33383 18.6958 4.33095 18.7663 4.33095C18.8353 4.33095 18.9 4.33383 18.9646 4.3364L18.9644 4.30544H18.9619C18.9117 4.30555 18.8766 4.28581 18.8582 4.24211C18.8387 4.19707 18.821 4.14205 18.8033 4.09032L18.5304 3.3146C18.526 3.30277 18.5215 3.2893 18.5179 3.27923C18.5166 3.27738 18.5168 3.27738 18.5156 3.27738H18.5128C18.5097 3.27738 18.5081 3.2784 18.5045 3.27943C18.4756 3.29763 18.4162 3.32724 18.3723 3.33866C18.3631 3.39481 18.3362 3.46874 18.3171 3.52375L18.0796 4.20447C18.0571 4.26884 18.0053 4.30555 17.9446 4.30544H17.9424V4.3364C17.9934 4.33383 18.0444 4.33095 18.0961 4.33095C18.1535 4.33095 18.212 4.33383 18.2691 4.3364V4.30544H18.259C18.2108 4.30482 18.1432 4.29959 18.1414 4.24684C18.1417 4.21743 18.1601 4.17969 18.1744 4.12941L18.1805 4.13135L18.1744 4.12919L18.2233 3.97063H18.5691L18.6285 4.14688C18.6449 4.1946 18.6583 4.23398 18.6583 4.25578C18.6562 4.30134 18.594 4.30451 18.56 4.30544H18.5503V4.3366H18.5503ZM18.2473 3.90021L18.3895 3.46771H18.3973V3.47419L18.3957 3.4745L18.3973 3.47419V3.46771H18.4019L18.542 3.90021H18.2473ZM18.2651 3.88745H18.5245L18.3955 3.49023L18.2651 3.88745ZM18.3911 3.47605L18.3941 3.47492L18.3911 3.47605ZM19.3448 4.19799C19.3448 4.25733 19.3859 4.27501 19.4334 4.28108C19.4942 4.2856 19.5609 4.2856 19.6294 4.2781C19.6915 4.2706 19.745 4.23502 19.7715 4.19799C19.7952 4.16529 19.8086 4.12375 19.8175 4.09116H19.8605C19.8442 4.17568 19.8235 4.25897 19.8056 4.34339C19.6754 4.34339 19.5446 4.33753 19.4143 4.33753C19.2836 4.33753 19.1533 4.34339 19.0229 4.34339V4.29865H19.0432C19.0969 4.29865 19.1549 4.29146 19.1549 4.19943V3.43727C19.1549 3.35994 19.0969 3.35265 19.0432 3.35265H19.0229V3.30812C19.1012 3.30812 19.1784 3.31398 19.2569 3.31398C19.3328 3.31398 19.4068 3.30812 19.4825 3.30812V3.35265H19.4452C19.389 3.35265 19.3448 3.35429 19.3448 3.43265V4.19799Z" fill="white"/>
<path d="M19.8049 4.35031C19.6742 4.35031 19.5438 4.34435 19.4137 4.34435C19.2831 4.34435 19.1526 4.35031 19.0219 4.35031H19.0156V4.29294H19.0426C19.0964 4.2917 19.1472 4.288 19.1478 4.20008V3.43762C19.1471 3.36554 19.0967 3.36061 19.0426 3.35957H19.0156V3.30241H19.0219C19.1008 3.30241 19.178 3.30806 19.2563 3.30806C19.3316 3.30806 19.4057 3.30241 19.4818 3.30241H19.4879V3.35957H19.4446C19.3872 3.36121 19.3514 3.35854 19.3502 3.43331V4.19865C19.3506 4.25387 19.3869 4.26878 19.4331 4.27526C19.4593 4.27711 19.4868 4.27824 19.5154 4.27824C19.5517 4.27824 19.5894 4.27649 19.6277 4.27238C19.6881 4.2653 19.7402 4.23043 19.7657 4.19505C19.7885 4.16338 19.8017 4.12266 19.8105 4.09027L19.8118 4.08535H19.8677L19.8663 4.09316C19.8496 4.17799 19.8292 4.26087 19.8112 4.3453L19.81 4.35033H19.8049V4.35031ZM19.7996 4.33736C19.8168 4.25695 19.8362 4.17827 19.8521 4.09807H19.8217C19.8124 4.13035 19.7993 4.17015 19.7759 4.20254C19.7483 4.241 19.6934 4.27719 19.6291 4.28511C19.5902 4.28912 19.5518 4.29118 19.5154 4.29118C19.4867 4.29118 19.4588 4.28984 19.432 4.28798C19.3838 4.28263 19.337 4.26207 19.3372 4.19863V3.43329C19.3372 3.35092 19.3893 3.3467 19.4446 3.3467H19.4753V3.31524C19.4022 3.31565 19.3302 3.32109 19.2563 3.32109C19.1795 3.32109 19.1045 3.31565 19.0284 3.31524V3.3467H19.0426C19.0955 3.3467 19.1603 3.35596 19.1603 3.4376V4.20007C19.1603 4.29601 19.0958 4.30598 19.0426 4.30598H19.0284V4.33735C19.1566 4.33724 19.2848 4.33169 19.4137 4.33169C19.5425 4.33169 19.6713 4.33724 19.7996 4.33736ZM19.8418 3.2666C19.9312 3.2666 19.9979 3.33529 19.9979 3.42331C19.9979 3.51092 19.9312 3.57899 19.8418 3.57899C19.7525 3.57899 19.6856 3.51092 19.6856 3.42331C19.6856 3.3353 19.7525 3.2666 19.8418 3.2666ZM19.8418 3.54989C19.9117 3.54989 19.9653 3.49025 19.9653 3.42331C19.9653 3.35596 19.9125 3.2958 19.8418 3.2958C19.7716 3.2958 19.7179 3.35597 19.7179 3.42331C19.7179 3.49025 19.7716 3.54989 19.8418 3.54989ZM19.7641 3.50557V3.49786C19.7833 3.49519 19.7868 3.4958 19.7868 3.48388V3.3683C19.7868 3.35206 19.7851 3.34651 19.7648 3.34732V3.3394H19.8447C19.8723 3.3394 19.8975 3.35246 19.8975 3.38084C19.8975 3.40408 19.882 3.42125 19.8605 3.42794L19.8861 3.46371C19.8982 3.47996 19.9116 3.49519 19.9206 3.50052V3.50556H19.8902C19.8756 3.50556 19.8628 3.47482 19.834 3.43358H19.8167V3.48551C19.8167 3.49579 19.8203 3.49518 19.8396 3.49785V3.50556H19.7641V3.50557ZM19.8167 3.42331H19.8352C19.8553 3.42331 19.8648 3.40799 19.8648 3.38341C19.8648 3.35853 19.8502 3.34978 19.8341 3.34978H19.8167V3.42331Z" fill="white"/>
<path d="M3.83229 5.18252C5.24874 5.18929 6.54159 4.02734 6.54159 2.61378C6.54159 1.06797 5.24874 -0.000513953 3.83229 1.85466e-07H2.61326C1.17985 -0.000513953 0 1.06829 0 2.61378C0 4.02765 1.17985 5.18931 2.61326 5.18252H3.83229Z" fill="white"/>
<path d="M2.61956 0.213867C1.30974 0.214278 0.248355 1.27597 0.248047 2.58632C0.248355 3.89644 1.30973 4.95803 2.61956 4.95844C3.92969 4.95803 4.9913 3.89644 4.99148 2.58632C4.99129 1.27597 3.92969 0.214278 2.61956 0.213867ZM1.11632 2.58632C1.11756 1.94601 1.51746 1.4 2.08136 1.18302V3.98929C1.51746 3.77244 1.11755 3.22672 1.11632 2.58632ZM3.15756 3.98991V1.18293C3.72167 1.39938 4.12218 1.9457 4.12321 2.58632C4.12218 3.22713 3.72167 3.77304 3.15756 3.98991Z" fill="#26337A"/>
<path d="M7.3707 1.11431C7.3707 0.869162 7.24287 0.885306 7.1203 0.882643V0.811795C7.22652 0.817039 7.33542 0.817039 7.44186 0.817039C7.5563 0.817039 7.71168 0.811795 7.91341 0.811795C8.61902 0.811795 9.00328 1.28316 9.00328 1.76582C9.00328 2.03574 8.84535 2.7143 7.88061 2.7143C7.74169 2.7143 7.61346 2.70895 7.48544 2.70895C7.36287 2.70895 7.24287 2.71163 7.12029 2.7143V2.64356C7.2837 2.6271 7.36287 2.62166 7.37069 2.43626V1.11431H7.3707ZM7.63785 2.39276C7.63785 2.60263 7.78787 2.62711 7.92134 2.62711C8.51013 2.62711 8.70345 2.18279 8.70345 1.77662C8.70345 1.26711 8.37635 0.899188 7.8505 0.899188C7.73863 0.899188 7.68721 0.907209 7.63786 0.910098L7.63785 2.39276ZM9.09891 2.64357H9.15053C9.22673 2.64357 9.28134 2.64357 9.28134 2.55338V1.81488C9.28134 1.6951 9.24051 1.67843 9.13964 1.62424V1.58053C9.26766 1.54208 9.42048 1.49066 9.43116 1.48244C9.45039 1.47154 9.46664 1.46866 9.48031 1.46866C9.49379 1.46866 9.49944 1.48511 9.49944 1.50701V2.55338C9.49944 2.64357 9.55939 2.64357 9.63569 2.64357H9.68196V2.71442C9.5892 2.71442 9.49378 2.70898 9.39589 2.70898C9.29779 2.70898 9.19959 2.71165 9.09892 2.71442V2.64357H9.09891ZM9.39043 1.04901C9.31949 1.04901 9.25697 0.98362 9.25697 0.912761C9.25697 0.844484 9.32237 0.781656 9.39043 0.781656C9.46107 0.781656 9.524 0.839147 9.524 0.912761C9.524 0.986386 9.46386 1.04901 9.39043 1.04901ZM9.94086 1.83113C9.94086 1.73036 9.91072 1.70321 9.78291 1.65138V1.59967C9.90004 1.56152 10.0116 1.52605 10.1425 1.46867C10.1506 1.46867 10.1586 1.47422 10.1586 1.49592V1.67318C10.3142 1.56152 10.4478 1.46866 10.6306 1.46866C10.862 1.46866 10.9437 1.6377 10.9437 1.85024V2.55339C10.9437 2.64357 11.0037 2.64357 11.0801 2.64357H11.1291V2.71442C11.0335 2.71442 10.9382 2.70898 10.8403 2.70898C10.7421 2.70898 10.6439 2.71165 10.5459 2.71442V2.64357H10.5948C10.6713 2.64357 10.7255 2.64357 10.7255 2.55339V1.84767C10.7255 1.69209 10.6306 1.6159 10.475 1.6159C10.3879 1.6159 10.2489 1.68676 10.1586 1.7468V2.55337C10.1586 2.64356 10.2189 2.64356 10.2953 2.64356H10.3442V2.71441C10.2489 2.71441 10.1534 2.70896 10.0553 2.70896C9.95729 2.70896 9.859 2.71164 9.76099 2.71441V2.64356H9.81014C9.88644 2.64356 9.94084 2.64356 9.94084 2.55337V1.83113H9.94086ZM11.3363 1.96212C11.3307 1.9867 11.3307 2.02752 11.3363 2.12027C11.3524 2.37908 11.519 2.59164 11.7367 2.59164C11.8867 2.59164 12.0042 2.50989 12.1049 2.40912L12.1429 2.44737C12.0175 2.61354 11.8622 2.75523 11.6388 2.75523C11.2054 2.75523 11.1182 2.33538 11.1182 2.1611C11.1182 1.6268 11.4779 1.46865 11.6685 1.46865C11.8894 1.46865 12.1266 1.60758 12.1292 1.89651C12.1292 1.91307 12.1292 1.92921 12.1266 1.94577L12.102 1.96212H11.3363ZM11.8188 1.87483C11.8867 1.87483 11.8948 1.83935 11.8948 1.80676C11.8948 1.66772 11.8104 1.55595 11.6577 1.55595C11.4916 1.55595 11.3771 1.67842 11.3444 1.87483H11.8188ZM12.192 2.64357H12.2656C12.3417 2.64357 12.3962 2.64357 12.3962 2.55338V1.78762C12.3962 1.7032 12.2955 1.68675 12.2545 1.66495V1.62423C12.4535 1.5396 12.5625 1.46865 12.5873 1.46865C12.6035 1.46865 12.6115 1.47687 12.6115 1.50423V1.74947H12.6173C12.6852 1.64325 12.7999 1.46865 12.9659 1.46865C13.0341 1.46865 13.1212 1.51492 13.1212 1.61312C13.1212 1.68675 13.0696 1.75235 12.9933 1.75235C12.9085 1.75235 12.9085 1.68675 12.8133 1.68675C12.7669 1.68675 12.6144 1.74947 12.6144 1.91307V2.55338C12.6144 2.64356 12.6688 2.64356 12.7452 2.64356H12.8977V2.71442C12.7477 2.71163 12.6337 2.70897 12.5163 2.70897C12.4046 2.70897 12.2901 2.71164 12.192 2.71442V2.64357H12.192ZM13.2412 2.33538C13.2767 2.51533 13.3856 2.66804 13.5847 2.66804C13.7451 2.66804 13.8051 2.56994 13.8051 2.47452C13.8051 2.15287 13.2112 2.25642 13.2112 1.81766C13.2112 1.66496 13.3339 1.46866 13.6336 1.46866C13.7207 1.46866 13.8378 1.49334 13.944 1.54794L13.9634 1.82569H13.9005C13.8734 1.65416 13.7781 1.55597 13.6035 1.55597C13.4945 1.55597 13.391 1.6187 13.391 1.73582C13.391 2.05499 14.0232 1.95659 14.0232 2.38445C14.0232 2.5643 13.8787 2.75525 13.5544 2.75525C13.4454 2.75525 13.3174 2.7171 13.2221 2.6627L13.192 2.34919L13.2412 2.33538ZM16.484 1.30515H16.416C16.3642 0.986386 16.138 0.85816 15.8329 0.85816C15.5193 0.85816 15.0641 1.06792 15.0641 1.72202C15.0641 2.27297 15.4568 2.66802 15.8764 2.66802C16.1461 2.66802 16.3697 2.48273 16.4242 2.19646L16.4868 2.21271L16.4242 2.61064C16.3098 2.6817 16.0018 2.75523 15.8218 2.75523C15.1842 2.75523 14.781 2.34362 14.781 1.73034C14.781 1.17158 15.2797 0.770756 15.8137 0.770756C16.0344 0.770756 16.247 0.841913 16.4568 0.915538L16.484 1.30515ZM16.5823 2.64357H16.6339C16.7103 2.64357 16.765 2.64357 16.765 2.55338V1.03545C16.765 0.85817 16.7241 0.85271 16.6204 0.822787V0.779188C16.7294 0.743826 16.8439 0.694664 16.9012 0.661872C16.9309 0.645625 16.9529 0.631836 16.9609 0.631836C16.9776 0.631836 16.983 0.648299 16.983 0.670191V2.55338C16.983 2.64357 17.0429 2.64357 17.1193 2.64357H17.1652V2.71442C17.073 2.71442 16.9776 2.70897 16.8794 2.70897C16.7814 2.70897 16.6833 2.71165 16.5823 2.71442V2.64357H16.5823ZM18.3321 2.56429C18.3321 2.61354 18.3619 2.61622 18.4082 2.61622C18.441 2.61622 18.4817 2.61354 18.5173 2.61354V2.67092C18.4 2.68172 18.1765 2.73899 18.1247 2.75524L18.111 2.747V2.52645C17.9477 2.65991 17.8222 2.75524 17.6285 2.75524C17.4814 2.75524 17.3288 2.65991 17.3288 2.43112V1.73312C17.3288 1.66227 17.318 1.59409 17.1656 1.58052V1.5287C17.2638 1.52603 17.4814 1.50967 17.517 1.50967C17.5472 1.50967 17.5472 1.5287 17.5472 1.58865V2.29167C17.5472 2.37364 17.5472 2.60797 17.7841 2.60797C17.8768 2.60797 17.9993 2.53712 18.1137 2.44201V1.70843C18.1137 1.65414 17.983 1.62422 17.8851 1.59685V1.5478C18.13 1.53135 18.2829 1.50966 18.31 1.50966C18.3321 1.50966 18.3321 1.52868 18.3321 1.55881V2.56429H18.3321ZM18.8743 1.66496C18.9832 1.5723 19.1304 1.46866 19.2804 1.46866C19.5966 1.46866 19.7871 1.74424 19.7871 2.04109C19.7871 2.39812 19.5256 2.75523 19.1357 2.75523C18.9342 2.75523 18.8279 2.68973 18.757 2.6599L18.6753 2.72242L18.6183 2.69261C18.6424 2.53178 18.6563 2.37364 18.6563 2.20747V1.03543C18.6563 0.85817 18.6152 0.85271 18.5117 0.822787V0.779188C18.6211 0.743826 18.7352 0.694664 18.7925 0.661862C18.8225 0.645615 18.8442 0.631836 18.8526 0.631836C18.8689 0.631836 18.8743 0.648299 18.8743 0.670191V1.66495H18.8743V1.66496ZM18.8743 2.40624C18.8743 2.50989 18.9723 2.68449 19.1549 2.68449C19.4466 2.68449 19.5691 2.39812 19.5691 2.15546C19.5691 1.86116 19.3459 1.61592 19.1332 1.61592C19.0322 1.61592 18.9478 1.68142 18.8743 1.74424V2.40624H18.8743ZM7.11719 4.29908H7.13806C7.19133 4.29908 7.24768 4.2919 7.24768 4.21466V3.4377C7.24768 3.36036 7.19133 3.35307 7.13806 3.35307H7.11719V3.30854C7.17508 3.30854 7.26403 3.31441 7.33693 3.31441C7.41097 3.31441 7.49981 3.30854 7.56953 3.30854V3.35307H7.54865C7.49549 3.35307 7.43905 3.36037 7.43905 3.4377V4.21466C7.43905 4.2919 7.49549 4.29908 7.54865 4.29908H7.56953V4.34382C7.49837 4.34382 7.40922 4.33796 7.33528 4.33796C7.2626 4.33796 7.17508 4.34382 7.11719 4.34382V4.29908Z" fill="white"/>
<path d="M7.57003 4.35014C7.49836 4.35014 7.40953 4.34417 7.33569 4.34417C7.26319 4.34417 7.17601 4.35014 7.11769 4.35014H7.11133V4.29276H7.13847C7.19224 4.29152 7.2412 4.28721 7.24171 4.21471V3.43773C7.2412 3.36524 7.19225 3.3604 7.13847 3.35938H7.11133V3.302H7.11769C7.17601 3.302 7.26485 3.30786 7.33733 3.30786C7.41116 3.30786 7.49991 3.302 7.57003 3.302H7.57662V3.35938H7.54926C7.49548 3.36041 7.44622 3.36524 7.44592 3.43773V4.21471C7.44622 4.28721 7.49547 4.29152 7.54926 4.29276H7.57661V4.35014H7.57003ZM7.56366 4.33748V4.30581H7.54927C7.49631 4.30581 7.43328 4.29665 7.43296 4.21471V3.43773C7.43327 3.35578 7.4963 3.34653 7.54927 3.34653H7.56366V3.31506C7.49517 3.31506 7.40931 3.32082 7.33733 3.32082C7.2669 3.32082 7.18165 3.31547 7.12427 3.31506V3.34653H7.13846C7.19132 3.34653 7.25456 3.35578 7.25456 3.43773V4.21471C7.25456 4.29667 7.19132 4.30581 7.13846 4.30581H7.12427V4.33748C7.18165 4.33686 7.26545 4.33151 7.33569 4.33151C7.40787 4.33151 7.49373 4.33707 7.56366 4.33748ZM8.58875 4.05151L8.59172 4.04863V3.49254C8.59172 3.37079 8.5071 3.35311 8.46268 3.35311H8.42997V3.30857C8.49979 3.30857 8.56797 3.31443 8.63758 3.31443C8.69834 3.31443 8.75943 3.30857 8.8201 3.30857V3.35311H8.79789C8.73547 3.35311 8.66575 3.36492 8.66575 3.54138V4.21635C8.66575 4.26818 8.66729 4.32 8.67459 4.36597H8.61814L7.85465 3.51466V4.12577C7.85465 4.25481 7.87964 4.29913 7.99398 4.29913H8.01906V4.34386C7.95542 4.34386 7.89176 4.338 7.8279 4.338C7.76137 4.338 7.69311 4.34386 7.62627 4.34386V4.29913H7.64704C7.74935 4.29913 7.78042 4.22961 7.78042 4.11106V3.48638C7.78042 3.4034 7.71204 3.35312 7.64561 3.35312H7.62628V3.30859C7.68262 3.30859 7.74042 3.31444 7.79666 3.31444C7.84118 3.31444 7.88427 3.30859 7.92869 3.30859L8.58875 4.05151Z" fill="white"/>
<path d="M8.67407 4.37262L8.6129 4.37035L7.86039 3.53159V4.12593C7.86214 4.25488 7.88178 4.2915 7.99345 4.29293H8.02523V4.3503H8.01865C7.95448 4.3503 7.89063 4.34434 7.82738 4.34434C7.76095 4.34434 7.69288 4.3503 7.62563 4.3503H7.61915V4.29293H7.6465C7.7445 4.29241 7.77247 4.22948 7.7736 4.11123V3.48665C7.77338 3.40768 7.70861 3.35976 7.64506 3.35956H7.61914V3.30239H7.62562C7.68229 3.30239 7.74037 3.30804 7.796 3.30804C7.84012 3.30804 7.88311 3.30239 7.93307 3.30455L8.5848 4.03823V3.49283C8.58397 3.37479 8.50532 3.3606 8.46212 3.35956H8.42284V3.30239H8.42942C8.49946 3.30239 8.56773 3.30804 8.63703 3.30804C8.69739 3.30804 8.75816 3.30239 8.81945 3.30239H8.82593V3.35955H8.79734C8.73616 3.36131 8.67333 3.36664 8.67159 3.54155V4.21641C8.67159 4.26824 8.67312 4.32006 8.68033 4.365L8.68177 4.37261H8.67407V4.37262ZM8.61773 4.35955H8.66678C8.66011 4.31502 8.65897 4.26567 8.65897 4.21641V3.54155C8.65897 3.36356 8.73352 3.34671 8.79737 3.34671H8.813V3.31523C8.7546 3.31564 8.69598 3.32099 8.63707 3.32099C8.56921 3.32099 8.50319 3.31564 8.43605 3.31523L8.43594 3.34671H8.46216C8.50772 3.34671 8.59769 3.36706 8.59769 3.49282L8.59563 4.05322L8.59265 4.05632L8.58762 4.06095L7.92818 3.31523C7.88418 3.31523 7.84119 3.32099 7.79605 3.32099C7.74165 3.32099 7.68602 3.31564 7.63224 3.31523L7.63193 3.3467H7.64509C7.71471 3.3467 7.78617 3.39986 7.78617 3.48664V4.11122C7.78617 4.22977 7.75317 4.30566 7.64653 4.30607L7.63224 4.30566V4.33764C7.69651 4.33702 7.76252 4.33167 7.8274 4.33167C7.88931 4.33167 7.9509 4.33703 8.01218 4.33764V4.30607H7.99347C7.87675 4.30566 7.84777 4.25487 7.84765 4.12591V3.49815L8.61773 4.35955ZM8.58821 4.05158L8.59294 4.04726L8.58821 4.05158ZM8.58482 4.04871V4.0482L8.58358 4.04716L8.58482 4.04871ZM9.04159 3.38279C8.93022 3.38279 8.92601 3.40953 8.9038 3.5177H8.85927C8.86513 3.47626 8.87254 3.43482 8.87706 3.39163C8.88302 3.35009 8.8859 3.30874 8.8859 3.26577H8.92158C8.93351 3.31029 8.97053 3.30875 9.01074 3.30875H9.77567C9.81577 3.30875 9.8528 3.30731 9.85588 3.2627L9.89124 3.26866C9.88548 3.30875 9.87952 3.34876 9.875 3.38885C9.87232 3.42886 9.87232 3.46896 9.87232 3.50885L9.8277 3.52541C9.82461 3.4706 9.81721 3.38279 9.71798 3.38279H9.47479V4.17189C9.47479 4.28623 9.52673 4.2993 9.59767 4.2993H9.62595V4.34403C9.56816 4.34403 9.46421 4.33817 9.3843 4.33817C9.29537 4.33817 9.1914 4.34403 9.13351 4.34403V4.2993H9.16178C9.24353 4.2993 9.28487 4.29199 9.28487 4.17497V3.38279H9.04159Z" fill="white"/>
<path d="M9.62587 4.35002C9.56745 4.35002 9.4637 4.34405 9.384 4.34405C9.29516 4.34405 9.19142 4.35002 9.13321 4.35002H9.12704V4.29264H9.16149C9.24323 4.29069 9.27613 4.28966 9.27799 4.17469V3.38899H9.04128V3.37592H9.29085V4.17469C9.29085 4.29366 9.24294 4.30569 9.1615 4.30579H9.1397V4.33705C9.19821 4.33675 9.29795 4.3314 9.38401 4.3314C9.46135 4.3314 9.56047 4.33675 9.61908 4.33705V4.30579H9.59738C9.52571 4.30569 9.46802 4.28811 9.46802 4.1716V3.37592H9.71769C9.81723 3.37633 9.83018 3.46096 9.83348 3.51597L9.86545 3.50415C9.86545 3.46548 9.86566 3.42672 9.86833 3.38764C9.87265 3.34949 9.8781 3.31165 9.88365 3.27381L9.86102 3.27001C9.85414 3.3132 9.81249 3.31536 9.77516 3.31494H9.00272C8.96786 3.31494 8.92971 3.3133 8.91645 3.27187H8.89197C8.89182 3.31212 8.8889 3.35232 8.88322 3.39217C8.8789 3.4329 8.87212 3.47208 8.86656 3.51125H8.89835C8.91788 3.4079 8.93064 3.37438 9.04127 3.37593V3.38899C8.93165 3.39094 8.93393 3.40945 8.90975 3.51907L8.90863 3.52411H8.85156L8.85239 3.51639C8.85835 3.47485 8.86587 3.4335 8.87028 3.39032C8.87645 3.34919 8.87933 3.30806 8.87933 3.26548V3.25901H8.92632L8.92735 3.26363C8.93753 3.30106 8.96498 3.30127 9.00272 3.30189H9.77516C9.81651 3.30127 9.84652 3.30065 9.84909 3.26188L9.84971 3.25488L9.85639 3.25632L9.89825 3.26291L9.89731 3.26939C9.89135 3.30908 9.8855 3.34919 9.88118 3.38898C9.87819 3.42847 9.87819 3.46857 9.87819 3.50857V3.5132L9.87408 3.51484L9.82154 3.53396L9.82114 3.52532C9.81722 3.46959 9.81136 3.38897 9.71768 3.38897H9.48097V4.17159C9.48231 4.28347 9.52672 4.29118 9.59736 4.29262H9.63212V4.35L9.62587 4.35002ZM9.93836 4.29901H9.95923C10.0125 4.29901 10.0689 4.29182 10.0689 4.21458V3.43762C10.0689 3.36028 10.0125 3.35299 9.95923 3.35299H9.93836V3.30847C10.0286 3.30847 10.1831 3.31433 10.3074 3.31433C10.4322 3.31433 10.5862 3.30847 10.6869 3.30847C10.6845 3.37212 10.6858 3.47021 10.6902 3.53531L10.6455 3.54723C10.6384 3.45089 10.6206 3.37387 10.4648 3.37387H10.2589V3.76226H10.4351C10.5241 3.76226 10.5435 3.71197 10.5522 3.63167H10.5967C10.5938 3.68976 10.5922 3.74756 10.5922 3.80535C10.5922 3.8618 10.5938 3.91805 10.5967 3.9744L10.5522 3.98323C10.5435 3.8943 10.539 3.8365 10.4366 3.8365H10.2589V4.1819C10.2589 4.27845 10.3445 4.27845 10.4396 4.27845C10.6175 4.27845 10.696 4.26642 10.7405 4.09758L10.7821 4.10776C10.7626 4.18652 10.745 4.26498 10.7318 4.34375C10.6368 4.34375 10.4662 4.33789 10.3329 4.33789C10.1992 4.33789 10.0229 4.34375 9.93836 4.34375V4.29901Z" fill="white"/>
<path d="M10.7332 4.34968C10.638 4.34968 10.4675 4.3436 10.3343 4.3436C10.2007 4.3436 10.0245 4.34968 9.93986 4.34968H9.93359V4.2923H9.96064C10.0144 4.29148 10.0631 4.28675 10.0639 4.21425V3.43727C10.0632 3.36488 10.0144 3.36005 9.96064 3.35892H9.93359V3.30176H9.93986C10.0303 3.30176 10.1846 3.30741 10.3089 3.30741C10.4336 3.30741 10.5875 3.30176 10.6884 3.30176H10.6951L10.6948 3.30834C10.6938 3.33065 10.6934 3.35697 10.6934 3.38495C10.6934 3.43625 10.6948 3.49229 10.6978 3.53456L10.698 3.53991L10.6931 3.54136L10.6409 3.55493L10.6406 3.54732C10.6319 3.45107 10.619 3.38125 10.4664 3.37981H10.2666L10.2663 3.75524H10.4366C10.522 3.75442 10.5373 3.71071 10.5474 3.63082L10.5479 3.62496H10.6048L10.6047 3.63163C10.6018 3.68942 10.5999 3.74721 10.5999 3.805C10.5999 3.86114 10.6018 3.91739 10.6047 3.97384L10.6048 3.97909L10.5994 3.98032L10.5479 3.9906L10.5474 3.98361C10.5372 3.89312 10.5365 3.84356 10.438 3.84244L10.2666 3.84232V4.18155C10.2667 4.27163 10.3444 4.27112 10.4411 4.27163C10.6196 4.2706 10.6911 4.26197 10.7359 4.09538L10.7373 4.08942L10.7436 4.09055L10.7911 4.10278L10.7896 4.10896C10.7705 4.18752 10.7527 4.26587 10.7395 4.34442L10.7382 4.34968H10.7332ZM10.7277 4.33672C10.7406 4.26195 10.7575 4.1869 10.7758 4.11224L10.7464 4.10483C10.702 4.27081 10.616 4.2856 10.441 4.28448C10.3477 4.28448 10.2541 4.28448 10.2537 4.18154V3.82967H10.438C10.5415 3.82853 10.5521 3.89105 10.5594 3.97548L10.5915 3.9688C10.5886 3.91424 10.5872 3.85962 10.5873 3.80499C10.5873 3.74915 10.5886 3.69363 10.5915 3.63779H10.5594C10.5512 3.71501 10.527 3.76931 10.4366 3.76828H10.2537V3.36684H10.4664C10.6206 3.3658 10.6462 3.4454 10.6528 3.53866L10.6848 3.53003C10.6822 3.48817 10.6804 3.4345 10.6804 3.38494C10.6804 3.35954 10.681 3.33558 10.6819 3.3146C10.5811 3.31501 10.431 3.32036 10.3089 3.32036C10.1871 3.32036 10.037 3.31501 9.94624 3.3146V3.34607H9.96063C10.0135 3.34607 10.0766 3.35532 10.0768 3.43727V4.21425C10.0766 4.296 10.0135 4.30505 9.96063 4.30546H9.94624V4.33672C10.0327 4.33661 10.204 4.33106 10.3343 4.33106C10.4651 4.33106 10.6321 4.33661 10.7277 4.33672ZM10.9837 3.46524C10.9837 3.35707 10.9245 3.35265 10.8783 3.35265H10.8517V3.30802C10.8992 3.30802 10.991 3.31398 11.0815 3.31398C11.1704 3.31398 11.2417 3.30802 11.3202 3.30802C11.5069 3.30802 11.6732 3.35851 11.6732 3.56931C11.6732 3.70247 11.5842 3.78411 11.4671 3.83028L11.7206 4.20972C11.7621 4.27244 11.7916 4.29002 11.8644 4.29865V4.34339C11.8155 4.34339 11.768 4.33753 11.7191 4.33753C11.6732 4.33753 11.6255 4.34339 11.5798 4.34339C11.4656 4.19357 11.3675 4.03337 11.2712 3.86267H11.1736V4.18021C11.1736 4.29455 11.2268 4.29866 11.295 4.29866H11.3217V4.3434C11.237 4.3434 11.1513 4.33754 11.0667 4.33754C10.9954 4.33754 10.9257 4.3434 10.8517 4.3434V4.29866H10.8783C10.9334 4.29866 10.9837 4.27378 10.9837 4.21877V3.46524ZM11.1736 3.80931H11.246C11.3944 3.80931 11.4743 3.75297 11.4743 3.57794C11.4743 3.44612 11.3899 3.36149 11.2577 3.36149C11.2132 3.36149 11.1943 3.36612 11.1736 3.36745V3.80931H11.1736Z" fill="white"/>
<path d="M11.863 4.34986C11.8133 4.34986 11.7661 4.3439 11.7174 4.3439C11.6722 4.3439 11.6248 4.34986 11.5731 4.34739C11.4594 4.19819 11.3619 4.03891 11.2661 3.86945H11.1785V4.1802C11.18 4.29177 11.2249 4.29085 11.2934 4.29249H11.3267V4.34987H11.3201C11.2353 4.34987 11.1493 4.34391 11.0651 4.34391C10.9942 4.34391 10.9247 4.34987 10.8502 4.34987H10.8438V4.29249H10.8769C10.9303 4.29218 10.9754 4.26894 10.9756 4.21897V3.46546C10.9745 3.36016 10.9229 3.36077 10.8769 3.35924H10.8438V3.30176H10.8502C10.8983 3.30176 10.9898 3.30761 11.0801 3.30761C11.1686 3.30761 11.2399 3.30176 11.3188 3.30176C11.5057 3.30217 11.6778 3.35379 11.6783 3.56911C11.6783 3.70309 11.5898 3.78668 11.4753 3.83338L11.7245 4.20643C11.7659 4.26792 11.7917 4.28325 11.8639 4.29249L11.8694 4.29332V4.34987H11.863V4.34986ZM11.172 3.85648H11.2734L11.2751 3.85977C11.3718 4.03016 11.4692 4.19016 11.5784 4.3372C11.6236 4.3372 11.6712 4.33114 11.7174 4.33114C11.7648 4.33114 11.8104 4.33628 11.8566 4.337V4.3045C11.787 4.29587 11.7544 4.27509 11.7139 4.2135L11.4559 3.82737L11.4632 3.82439C11.5792 3.77874 11.6651 3.69946 11.6652 3.56907C11.6651 3.36331 11.5053 3.31561 11.3188 3.31479C11.2406 3.31479 11.1694 3.32065 11.0801 3.32065C10.993 3.32065 10.905 3.3152 10.8565 3.31479V3.34625H10.8769C10.9229 3.34636 10.9885 3.35396 10.9885 3.46544V4.21895C10.9885 4.27849 10.9327 4.30563 10.8769 4.30574H10.8565V4.33699C10.9279 4.33678 10.9954 4.33114 11.0651 4.33114C11.148 4.33114 11.2316 4.33679 11.3137 4.33699V4.30574H11.2934C11.2258 4.30562 11.1655 4.2972 11.1655 4.18018V3.85648H11.172H11.172ZM11.172 3.81576H11.1655V3.36168L11.1712 3.36116C11.1914 3.35963 11.2115 3.3554 11.2563 3.3554C11.3914 3.3554 11.4792 3.44322 11.4794 3.57843C11.479 3.7555 11.3941 3.81565 11.2446 3.81575H11.172V3.81576ZM11.2446 3.80302C11.3914 3.80178 11.4653 3.75079 11.4668 3.57844C11.466 3.44887 11.3855 3.36846 11.2563 3.36795C11.2162 3.36795 11.1974 3.37165 11.1785 3.37331V3.80302H11.2446ZM12.8698 4.05124L12.8725 4.04836V3.49227C12.8725 3.37052 12.788 3.35283 12.7436 3.35283H12.7111V3.3083C12.7807 3.3083 12.8488 3.31416 12.9186 3.31416C12.9795 3.31416 13.0401 3.3083 13.1013 3.3083V3.35283H13.0789C13.0166 3.35283 12.9469 3.36465 12.9469 3.54111V4.21607C12.9469 4.26791 12.9484 4.31972 12.9557 4.3657H12.8994L12.1358 3.51438V4.12549C12.1358 4.25454 12.161 4.29886 12.2751 4.29886H12.3003V4.34359C12.2367 4.34359 12.1728 4.33773 12.1092 4.33773C12.0422 4.33773 11.9741 4.34359 11.9074 4.34359V4.29886H11.928C12.0304 4.29886 12.0616 4.22934 12.0616 4.11079V3.48611C12.0616 3.40313 11.9934 3.35284 11.9268 3.35284H11.9074V3.30832C11.9636 3.30832 12.0217 3.31417 12.0779 3.31417C12.1221 3.31417 12.1653 3.30832 12.2098 3.30832L12.8698 4.05124Z" fill="white"/>
<path d="M12.9573 4.37246L12.8963 4.3704L12.1437 3.53155V4.12579C12.1454 4.25484 12.165 4.29143 12.2768 4.29288H12.3082V4.35026H12.3017C12.2376 4.35026 12.174 4.34418 12.1105 4.34418C12.0443 4.34418 11.9758 4.35026 11.909 4.35026H11.9023V4.29288H11.9296C12.0275 4.29247 12.0556 4.22944 12.0565 4.11077V3.48651C12.0564 3.40753 11.9917 3.35962 11.9284 3.3595H11.9023V3.30214H11.909C11.9656 3.30214 12.0236 3.30799 12.0795 3.30799C12.1231 3.30799 12.1661 3.30214 12.2159 3.30418L12.8677 4.03818V3.49256C12.8673 3.37472 12.7883 3.36012 12.7452 3.35951H12.706V3.30214H12.7125C12.7827 3.30214 12.8509 3.30799 12.9202 3.30799C12.9807 3.30799 13.0415 3.30214 13.1025 3.30214H13.109V3.35951H13.0805C13.0194 3.36116 12.9563 3.3666 12.9548 3.54152V4.21637C12.9548 4.26819 12.9561 4.31961 12.9636 4.36526L12.9645 4.37246H12.9573ZM12.901 4.3595H12.9497C12.9433 4.31498 12.9418 4.26562 12.9418 4.21637V3.54151C12.9419 3.3635 13.017 3.34706 13.0805 3.34655H13.0961V3.31519C13.0379 3.3156 12.9792 3.32094 12.9202 3.32094C12.8522 3.32094 12.786 3.3156 12.7189 3.31519V3.34655H12.7452C12.7909 3.34706 12.8807 3.36701 12.8807 3.49256L12.8787 4.05318L12.8758 4.05627L12.8713 4.061L12.2114 3.3152C12.1673 3.3152 12.1243 3.32095 12.0795 3.32095C12.0246 3.32095 11.9692 3.31561 11.9152 3.3152V3.34656H11.9284C11.998 3.34707 12.0694 3.39962 12.0694 3.48651V4.11076C12.0694 4.22984 12.0359 4.30562 11.9296 4.30603L11.9152 4.30593V4.33729C11.9793 4.33699 12.0454 4.33164 12.1105 4.33164C12.1727 4.33164 12.2343 4.33699 12.2956 4.33729V4.30603H12.2769C12.16 4.30593 12.1308 4.25484 12.1306 4.12578V3.49832L12.901 4.3595ZM12.8714 4.05154L12.8759 4.04732L12.8714 4.05154ZM12.8677 4.04876V4.04823L12.8665 4.04711L12.8677 4.04876ZM13.3413 4.13184C13.3263 4.18213 13.3084 4.221 13.3084 4.24742C13.3084 4.29205 13.3709 4.29925 13.4196 4.29925H13.4362V4.34398C13.3767 4.34078 13.3162 4.33812 13.2564 4.33812C13.2031 4.33812 13.15 4.3408 13.0965 4.34398V4.29925H13.1055C13.1632 4.29925 13.2123 4.2652 13.2342 4.2028L13.4717 3.52227C13.4909 3.46736 13.5178 3.39322 13.5268 3.33822C13.574 3.32208 13.6334 3.29246 13.6615 3.27457C13.6661 3.27304 13.6687 3.27148 13.6733 3.27148C13.6777 3.27148 13.6806 3.27148 13.6839 3.27611C13.6882 3.28783 13.6925 3.3013 13.6973 3.31313L13.97 4.08886C13.9878 4.14069 14.0054 4.19549 14.0247 4.24012C14.0425 4.28166 14.0738 4.29925 14.1228 4.29925H14.1316V4.34398C14.0649 4.34079 13.998 4.33813 13.9271 4.33813C13.8544 4.33813 13.78 4.3408 13.7045 4.34398V4.29925H13.7209C13.7548 4.29925 13.8128 4.29349 13.8128 4.25637C13.8128 4.23714 13.7995 4.19714 13.7829 4.14953L13.7252 3.9775H13.3887L13.3413 4.13184ZM13.5577 3.47477H13.5547L13.4168 3.89452H13.6939L13.5577 3.47477Z" fill="white"/>
<path d="M14.131 4.3503C14.0642 4.34732 13.9975 4.34423 13.9269 4.34423C13.8542 4.34423 13.7803 4.34732 13.7044 4.3503L13.6977 4.35072V4.29272H13.7206C13.7549 4.29272 13.8059 4.28491 13.8059 4.25643C13.8063 4.23956 13.793 4.19884 13.7766 4.15165L13.7202 3.98394H13.3931L13.347 4.13375C13.332 4.18434 13.3142 4.22352 13.3143 4.24768C13.3148 4.28389 13.3702 4.29272 13.4194 4.29272H13.4422V4.35072L13.4355 4.3503C13.3762 4.34732 13.3156 4.34423 13.2565 4.34423C13.2034 4.34423 13.1499 4.34732 13.0967 4.3503L13.0898 4.35072V4.29272H13.1052C13.1604 4.29252 13.2065 4.26116 13.2278 4.2008L13.4653 3.52019C13.4847 3.46517 13.5114 3.39124 13.5243 3.33211C13.5708 3.31638 13.6303 3.28656 13.6589 3.26846C13.663 3.26713 13.6671 3.26507 13.6732 3.26507C13.6768 3.26497 13.6848 3.26589 13.6895 3.27372C13.6938 3.28594 13.6984 3.29912 13.7029 3.31115L13.976 4.08679C13.9935 4.13882 14.0112 4.19363 14.0305 4.23742C14.0477 4.27702 14.075 4.29254 14.1227 4.29274H14.1378V4.35074L14.131 4.3503ZM13.7107 4.33704C13.7841 4.33447 13.856 4.33159 13.9269 4.33159C13.9957 4.33159 14.0602 4.33447 14.1247 4.33704V4.30608H14.1226C14.0718 4.30639 14.0368 4.28645 14.0186 4.24275C13.9992 4.19771 13.9811 4.1427 13.9638 4.09077L13.6907 3.31524C13.6862 3.30341 13.6819 3.28994 13.678 3.27946C13.6768 3.27802 13.6771 3.27802 13.6758 3.27802H13.6732C13.6701 3.27802 13.6683 3.27894 13.6645 3.27997C13.6359 3.29858 13.5764 3.32768 13.5325 3.3393C13.5233 3.39545 13.4967 3.46948 13.4774 3.52439L13.2401 4.20511C13.2174 4.26948 13.1655 4.30619 13.1052 4.30608H13.1028V4.33704C13.1536 4.33447 13.205 4.33159 13.2565 4.33159C13.3138 4.33159 13.3724 4.33447 13.4289 4.33704V4.30608H13.4194C13.3712 4.30546 13.3037 4.30001 13.3019 4.24767C13.302 4.21806 13.3202 4.18012 13.3346 4.13005L13.3411 4.13199L13.3346 4.12983L13.3835 3.97127H13.7292L13.7887 4.14753C13.8054 4.19514 13.8189 4.23462 13.8189 4.25642C13.8168 4.30198 13.7542 4.30516 13.7206 4.30609H13.7107V4.33704H13.7107ZM13.4076 3.90094L13.5496 3.46834H13.5576V3.47482L13.556 3.47513L13.5576 3.47482V3.46834H13.562L13.7028 3.90094H13.4076ZM13.4254 3.88808H13.6849L13.5558 3.49065L13.4254 3.88808ZM13.5511 3.47668L13.5545 3.47555L13.5511 3.47668ZM14.1966 3.38279C14.0853 3.38279 14.0809 3.40953 14.0586 3.5177H14.014C14.0199 3.47626 14.0274 3.43482 14.0321 3.39163C14.038 3.35009 14.0407 3.30874 14.0407 3.26577H14.0765C14.0883 3.31029 14.1255 3.30875 14.1653 3.30875H14.9307C14.9705 3.30875 15.0075 3.30731 15.0106 3.2627L15.046 3.26866C15.0404 3.30875 15.0345 3.34876 15.03 3.38885C15.0268 3.42886 15.0268 3.46896 15.0268 3.50885L14.9824 3.52541C14.9796 3.4706 14.9722 3.38279 14.8728 3.38279H14.6296V4.17189C14.6296 4.28623 14.6816 4.2993 14.7526 4.2993H14.7807V4.34403C14.723 4.34403 14.6193 4.33817 14.5391 4.33817C14.4503 4.33817 14.3463 4.34403 14.2885 4.34403V4.2993H14.3166C14.3983 4.2993 14.4399 4.29199 14.4399 4.17497V3.38279H14.1966Z" fill="white"/>
<path d="M14.78 4.35013C14.7218 4.35013 14.6179 4.34417 14.5383 4.34417C14.4497 4.34417 14.3458 4.35013 14.2877 4.35013H14.2811V4.29275H14.3158C14.3975 4.2908 14.4303 4.28977 14.4324 4.1748L14.4322 3.3891H14.1958V3.37603H14.4452V4.1748C14.4452 4.29377 14.3972 4.30549 14.3158 4.3058H14.294V4.33747C14.3527 4.33685 14.4522 4.33151 14.5383 4.33151C14.6157 4.33151 14.7149 4.33687 14.7735 4.33747V4.3058H14.7516C14.6803 4.30549 14.6225 4.28832 14.6223 4.17171V3.37603H14.872C14.9715 3.37644 14.9846 3.46107 14.9874 3.51608L15.0198 3.50426C15.0198 3.4656 15.0199 3.42683 15.0227 3.38796C15.0268 3.34981 15.0324 3.31177 15.0378 3.27392L15.0154 3.27011C15.0086 3.3133 14.9668 3.31567 14.9299 3.31505H14.157C14.1221 3.31546 14.0842 3.3134 14.0707 3.27176H14.0465C14.0461 3.31289 14.0433 3.35279 14.0374 3.39228C14.0335 3.4331 14.0262 3.47238 14.0207 3.51135H14.0524C14.0721 3.408 14.0849 3.37448 14.1958 3.37603V3.38909C14.0859 3.39095 14.0883 3.40956 14.064 3.51917L14.0629 3.52421H14.0057L14.0067 3.51679C14.0128 3.47495 14.0202 3.43361 14.0246 3.39073C14.0306 3.34929 14.0335 3.30816 14.0335 3.26559V3.25911H14.0804L14.0816 3.26374C14.092 3.30116 14.119 3.30137 14.157 3.30199L14.1645 3.30219H14.9299C14.9708 3.30138 15.0007 3.30075 15.0033 3.2621L15.0037 3.255L15.0107 3.25645L15.0527 3.26304L15.0516 3.26951C15.0456 3.30921 15.0399 3.34931 15.0354 3.3891C15.0324 3.42859 15.0324 3.46879 15.0324 3.50869V3.51332L15.0282 3.51496L14.9756 3.53409L14.9753 3.52544C14.9715 3.46972 14.9657 3.38909 14.872 3.38909H14.6352V4.17171C14.6367 4.28359 14.681 4.2913 14.7516 4.29274H14.7863V4.35012L14.78 4.35013ZM15.1 4.29912H15.1208C15.1744 4.29912 15.2304 4.29193 15.2304 4.2147V3.43773C15.2304 3.36039 15.1744 3.3531 15.1208 3.3531H15.1V3.30858C15.1579 3.30858 15.2468 3.31444 15.3192 3.31444C15.3937 3.31444 15.4826 3.30858 15.5523 3.30858V3.3531H15.5316C15.4782 3.3531 15.4217 3.3604 15.4217 3.43773V4.2147C15.4217 4.29193 15.4782 4.29912 15.5316 4.29912H15.5523V4.34386C15.4811 4.34386 15.392 4.338 15.3181 4.338C15.2453 4.338 15.1579 4.34386 15.1 4.34386V4.29912Z" fill="white"/>
<path d="M15.5524 4.35014C15.4808 4.35014 15.392 4.34406 15.3181 4.34406C15.2456 4.34406 15.158 4.35014 15.1001 4.35014H15.0936V4.29276H15.1209C15.1744 4.29194 15.2236 4.28731 15.2238 4.21472V3.43774C15.2236 3.36535 15.1744 3.3604 15.1209 3.35938H15.0936V3.30222H15.1001C15.158 3.30222 15.247 3.30788 15.3193 3.30788C15.3933 3.30788 15.4822 3.30222 15.5524 3.30222H15.5587V3.35938H15.5317C15.4775 3.36041 15.4288 3.36535 15.4281 3.43774V4.21472C15.4288 4.28731 15.4775 4.29194 15.5317 4.29276H15.5587V4.35014H15.5524ZM15.5458 4.33718V4.30581H15.5317C15.4785 4.30581 15.4156 4.29646 15.4156 4.21472V3.43774C15.4156 3.35579 15.4785 3.34653 15.5317 3.34653H15.5458V3.31507C15.4773 3.31548 15.3916 3.32082 15.3193 3.32082C15.2491 3.32082 15.1641 3.31548 15.1066 3.31507V3.34653H15.1209C15.1736 3.34653 15.2368 3.35579 15.237 3.43774V4.21472C15.2368 4.29645 15.1736 4.30581 15.1209 4.30581H15.1066V4.33718C15.1638 4.33656 15.2477 4.33152 15.3181 4.33152C15.39 4.33152 15.4758 4.33688 15.5458 4.33718H15.5458ZM16.1437 3.28638C16.4598 3.28638 16.7118 3.48237 16.7118 3.79815C16.7118 4.13934 16.4671 4.36607 16.1515 4.36607C15.8368 4.36607 15.5968 4.15248 15.5968 3.83363C15.5968 3.52525 15.8354 3.28638 16.1437 3.28638ZM16.1662 4.30077C16.4539 4.30077 16.504 4.04699 16.504 3.83075C16.504 3.61399 16.3871 3.35157 16.1409 3.35157C15.8813 3.35157 15.8043 3.58293 15.8043 3.78149C15.8043 4.04699 15.9259 4.30077 16.1662 4.30077Z" fill="white"/>
<path d="M15.5898 3.834C15.5905 3.52202 15.8319 3.28068 16.1434 3.28027V3.29301C15.8386 3.29301 15.6027 3.52881 15.6024 3.83399C15.6031 4.14926 15.8397 4.35965 16.1511 4.35975C16.4637 4.35965 16.7048 4.1361 16.7053 3.79822C16.705 3.48644 16.4569 3.29343 16.1434 3.29301V3.28027C16.4619 3.28048 16.7173 3.47842 16.7179 3.79822C16.7176 4.14299 16.4697 4.3721 16.1511 4.37271C15.834 4.37209 15.5905 4.15636 15.5899 3.83399H15.5898V3.834ZM15.7976 3.78187C15.798 3.58239 15.8759 3.34526 16.1406 3.34526C16.3923 3.34589 16.5099 3.61324 16.5103 3.83112C16.5099 4.04737 16.459 4.30733 16.1659 4.30733V4.29477C16.4479 4.29437 16.4967 4.04737 16.4974 3.83112C16.4974 3.61612 16.3816 3.35874 16.1406 3.35842C15.8862 3.35873 15.8109 3.58434 15.8104 3.78187C15.8106 4.04603 15.931 4.29416 16.1659 4.29477V4.30733C15.9197 4.30701 15.798 4.04892 15.7976 3.78187ZM17.7107 4.05189L17.7137 4.04901V3.49292C17.7137 3.37117 17.629 3.35349 17.5845 3.35349H17.5524V3.30895C17.6219 3.30895 17.6901 3.31481 17.7596 3.31481C17.8205 3.31481 17.8813 3.30895 17.9422 3.30895V3.35349H17.9198C17.8577 3.35349 17.7878 3.3653 17.7878 3.54176V4.21673C17.7878 4.26856 17.7893 4.32038 17.7968 4.36635H17.7405L16.9767 3.51504V4.12614C16.9767 4.25519 17.0018 4.29951 17.116 4.29951H17.1414V4.34424C17.0775 4.34424 17.0139 4.33838 16.9501 4.33838C16.8834 4.33838 16.815 4.34424 16.7483 4.34424V4.29951H16.7691C16.8717 4.29951 16.9024 4.22999 16.9024 4.11144V3.48676C16.9024 3.40378 16.8345 3.3535 16.7676 3.3535H16.7483V3.30897C16.8046 3.30897 16.8625 3.31482 16.9187 3.31482C16.9633 3.31482 17.0062 3.30897 17.0508 3.30897L17.7107 4.05189Z" fill="white"/>
<path d="M17.7972 4.37234L17.7359 4.37018L16.9835 3.53141V4.12577C16.9851 4.25471 17.0047 4.29122 17.1161 4.29255H17.1482V4.35014H17.1417C17.0774 4.35014 17.0138 4.34417 16.9504 4.34417C16.8839 4.34417 16.8158 4.35014 16.7485 4.35014H16.7423V4.29255H16.7695C16.8673 4.29226 16.8953 4.22933 16.8966 4.11106V3.48639C16.8963 3.40741 16.8317 3.3595 16.7679 3.35939H16.7423V3.30222H16.7485C16.8054 3.30222 16.8631 3.30789 16.9191 3.30789C16.9631 3.30789 17.0059 3.30222 17.056 3.30439L17.7076 4.03807V3.49267C17.7071 3.37463 17.6282 3.36043 17.5848 3.3594H17.5458V3.30224H17.5525C17.6223 3.30224 17.6907 3.3079 17.7597 3.3079C17.8206 3.3079 17.881 3.30224 17.9425 3.30224H17.9489V3.3594H17.9201C17.8591 3.36115 17.796 3.3667 17.7947 3.54141V4.21627C17.7947 4.26809 17.7959 4.3198 17.8031 4.36515L17.8043 4.37235H17.7972V4.37234ZM17.7409 4.35938H17.7894C17.783 4.31486 17.7818 4.2655 17.7818 4.21625V3.54139C17.7818 3.36308 17.8566 3.34694 17.9201 3.34643H17.9362V3.31506C17.8777 3.31548 17.8191 3.32082 17.7597 3.32082C17.6923 3.32082 17.6259 3.31548 17.5588 3.31506V3.34643H17.5848C17.6308 3.34694 17.7202 3.36721 17.7202 3.49265L17.7186 4.05306L17.7158 4.05615L17.7111 4.06087L17.0512 3.31507C17.0075 3.31507 16.9641 3.32083 16.9191 3.32083C16.8645 3.32083 16.8089 3.31549 16.7549 3.31507V3.34644H16.768C16.8376 3.34695 16.9092 3.3995 16.9092 3.48639V4.11106C16.9092 4.22962 16.8761 4.30551 16.7695 4.30592L16.7549 4.30581V4.33718C16.8193 4.33687 16.8853 4.33153 16.9505 4.33153C17.0123 4.33153 17.0737 4.33687 17.1353 4.33718V4.30592H17.1161C16.9997 4.30581 16.9706 4.25471 16.9706 4.12576V3.49799L17.7409 4.35938ZM17.7111 4.05141L17.7158 4.0472L17.7111 4.05141ZM17.7076 4.04864V4.04811L17.7063 4.04699L17.7076 4.04864ZM18.1808 4.13172C18.1663 4.182 18.1483 4.22087 18.1483 4.2473C18.1483 4.29193 18.2107 4.29913 18.2594 4.29913H18.2759V4.34386C18.2166 4.34066 18.1557 4.33799 18.0964 4.33799C18.0428 4.33799 17.9897 4.34068 17.9365 4.34386V4.29913H17.9449C18.003 4.29913 18.0522 4.26508 18.0741 4.20267L18.3116 3.52215C18.3307 3.46724 18.3576 3.3931 18.3662 3.3381C18.4137 3.32195 18.473 3.29234 18.5014 3.27445C18.5057 3.27291 18.5086 3.27136 18.5132 3.27136C18.5176 3.27136 18.5204 3.27136 18.5233 3.27599C18.5279 3.28771 18.5325 3.30118 18.5369 3.31301L18.8096 4.08874C18.8274 4.14057 18.8451 4.19537 18.8646 4.24C18.8824 4.28154 18.9137 4.29913 18.9624 4.29913H18.9715V4.34386C18.9046 4.34067 18.8379 4.338 18.7666 4.338C18.6941 4.338 18.6199 4.34068 18.5442 4.34386V4.29913H18.5607C18.5945 4.29913 18.6527 4.29337 18.6527 4.25625C18.6527 4.23702 18.6392 4.19702 18.6227 4.14941L18.5651 3.97738H18.2284L18.1808 4.13172ZM18.3976 3.47465H18.3946L18.2565 3.8944H18.534L18.3976 3.47465Z" fill="white"/>
<path d="M18.9705 4.34967C18.9038 4.347 18.8372 4.34371 18.7663 4.34371C18.694 4.34371 18.6198 4.347 18.5441 4.34967L18.5375 4.35009V4.2923H18.56C18.5946 4.2923 18.6457 4.28428 18.6458 4.25579C18.6461 4.23892 18.6327 4.19852 18.6162 4.15101L18.5598 3.9833H18.2325L18.1867 4.13311C18.1719 4.18391 18.1542 4.22288 18.1545 4.24685C18.1545 4.28325 18.21 4.2923 18.2591 4.2923H18.2817V4.35009L18.2751 4.34967C18.2158 4.347 18.1551 4.34371 18.0961 4.34371C18.0429 4.34371 17.9896 4.347 17.9362 4.34967L17.9297 4.35009V4.2923H17.9446C17.9999 4.29208 18.0462 4.26032 18.0678 4.20016L18.3051 3.51955C18.324 3.46453 18.3508 3.3906 18.3639 3.33168C18.4105 3.31554 18.47 3.28592 18.4988 3.26781C18.5027 3.26648 18.5068 3.26473 18.5128 3.26473C18.5167 3.26432 18.5243 3.26524 18.5291 3.27337C18.5335 3.285 18.5378 3.29846 18.5427 3.31049L18.8154 4.08613C18.8331 4.13816 18.8509 4.19296 18.8701 4.23708C18.8875 4.27636 18.9146 4.29189 18.9619 4.2923H18.9773V4.35009L18.9705 4.34967ZM18.5503 4.3366C18.6236 4.33383 18.6958 4.33095 18.7663 4.33095C18.8353 4.33095 18.9 4.33383 18.9646 4.3364L18.9644 4.30544H18.9619C18.9117 4.30555 18.8766 4.28581 18.8582 4.24211C18.8387 4.19707 18.821 4.14205 18.8033 4.09032L18.5304 3.3146C18.526 3.30277 18.5215 3.2893 18.5179 3.27923C18.5166 3.27738 18.5168 3.27738 18.5156 3.27738H18.5128C18.5097 3.27738 18.5081 3.2784 18.5045 3.27943C18.4756 3.29763 18.4162 3.32724 18.3723 3.33866C18.3631 3.39481 18.3362 3.46874 18.3171 3.52375L18.0796 4.20447C18.0571 4.26884 18.0053 4.30555 17.9446 4.30544H17.9424V4.3364C17.9934 4.33383 18.0444 4.33095 18.0961 4.33095C18.1535 4.33095 18.212 4.33383 18.2691 4.3364V4.30544H18.259C18.2108 4.30482 18.1432 4.29959 18.1414 4.24684C18.1417 4.21743 18.1601 4.17969 18.1744 4.12941L18.1805 4.13135L18.1744 4.12919L18.2233 3.97063H18.5691L18.6285 4.14688C18.6449 4.1946 18.6583 4.23398 18.6583 4.25578C18.6562 4.30134 18.594 4.30451 18.56 4.30544H18.5503V4.3366H18.5503ZM18.2473 3.90021L18.3895 3.46771H18.3973V3.47419L18.3957 3.4745L18.3973 3.47419V3.46771H18.4019L18.542 3.90021H18.2473ZM18.2651 3.88745H18.5245L18.3955 3.49023L18.2651 3.88745ZM18.3911 3.47605L18.3941 3.47492L18.3911 3.47605ZM19.3448 4.19799C19.3448 4.25733 19.3859 4.27501 19.4334 4.28108C19.4942 4.2856 19.5609 4.2856 19.6294 4.2781C19.6915 4.2706 19.745 4.23502 19.7715 4.19799C19.7952 4.16529 19.8086 4.12375 19.8175 4.09116H19.8605C19.8442 4.17568 19.8235 4.25897 19.8056 4.34339C19.6754 4.34339 19.5446 4.33753 19.4143 4.33753C19.2836 4.33753 19.1533 4.34339 19.0229 4.34339V4.29865H19.0432C19.0969 4.29865 19.1549 4.29146 19.1549 4.19943V3.43727C19.1549 3.35994 19.0969 3.35265 19.0432 3.35265H19.0229V3.30812C19.1012 3.30812 19.1784 3.31398 19.2569 3.31398C19.3328 3.31398 19.4068 3.30812 19.4825 3.30812V3.35265H19.4452C19.389 3.35265 19.3448 3.35429 19.3448 3.43265V4.19799Z" fill="white"/>
<path d="M19.8049 4.35031C19.6742 4.35031 19.5438 4.34435 19.4137 4.34435C19.2831 4.34435 19.1526 4.35031 19.0219 4.35031H19.0156V4.29294H19.0426C19.0964 4.2917 19.1472 4.288 19.1478 4.20008V3.43762C19.1471 3.36554 19.0967 3.36061 19.0426 3.35957H19.0156V3.30241H19.0219C19.1008 3.30241 19.178 3.30806 19.2563 3.30806C19.3316 3.30806 19.4057 3.30241 19.4818 3.30241H19.4879V3.35957H19.4446C19.3872 3.36121 19.3514 3.35854 19.3502 3.43331V4.19865C19.3506 4.25387 19.3869 4.26878 19.4331 4.27526C19.4593 4.27711 19.4868 4.27824 19.5154 4.27824C19.5517 4.27824 19.5894 4.27649 19.6277 4.27238C19.6881 4.2653 19.7402 4.23043 19.7657 4.19505C19.7885 4.16338 19.8017 4.12266 19.8105 4.09027L19.8118 4.08535H19.8677L19.8663 4.09316C19.8496 4.17799 19.8292 4.26087 19.8112 4.3453L19.81 4.35033H19.8049V4.35031ZM19.7996 4.33736C19.8168 4.25695 19.8362 4.17827 19.8521 4.09807H19.8217C19.8124 4.13035 19.7993 4.17015 19.7759 4.20254C19.7483 4.241 19.6934 4.27719 19.6291 4.28511C19.5902 4.28912 19.5518 4.29118 19.5154 4.29118C19.4867 4.29118 19.4588 4.28984 19.432 4.28798C19.3838 4.28263 19.337 4.26207 19.3372 4.19863V3.43329C19.3372 3.35092 19.3893 3.3467 19.4446 3.3467H19.4753V3.31524C19.4022 3.31565 19.3302 3.32109 19.2563 3.32109C19.1795 3.32109 19.1045 3.31565 19.0284 3.31524V3.3467H19.0426C19.0955 3.3467 19.1603 3.35596 19.1603 3.4376V4.20007C19.1603 4.29601 19.0958 4.30598 19.0426 4.30598H19.0284V4.33735C19.1566 4.33724 19.2848 4.33169 19.4137 4.33169C19.5425 4.33169 19.6713 4.33724 19.7996 4.33736ZM19.8418 3.2666C19.9312 3.2666 19.9979 3.33529 19.9979 3.42331C19.9979 3.51092 19.9312 3.57899 19.8418 3.57899C19.7525 3.57899 19.6856 3.51092 19.6856 3.42331C19.6856 3.3353 19.7525 3.2666 19.8418 3.2666ZM19.8418 3.54989C19.9117 3.54989 19.9653 3.49025 19.9653 3.42331C19.9653 3.35596 19.9125 3.2958 19.8418 3.2958C19.7716 3.2958 19.7179 3.35597 19.7179 3.42331C19.7179 3.49025 19.7716 3.54989 19.8418 3.54989ZM19.7641 3.50557V3.49786C19.7833 3.49519 19.7868 3.4958 19.7868 3.48388V3.3683C19.7868 3.35206 19.7851 3.34651 19.7648 3.34732V3.3394H19.8447C19.8723 3.3394 19.8975 3.35246 19.8975 3.38084C19.8975 3.40408 19.882 3.42125 19.8605 3.42794L19.8861 3.46371C19.8982 3.47996 19.9116 3.49519 19.9206 3.50052V3.50556H19.8902C19.8756 3.50556 19.8628 3.47482 19.834 3.43358H19.8167V3.48551C19.8167 3.49579 19.8203 3.49518 19.8396 3.49785V3.50556H19.7641V3.50557ZM19.8167 3.42331H19.8352C19.8553 3.42331 19.8648 3.40799 19.8648 3.38341C19.8648 3.35853 19.8502 3.34978 19.8341 3.34978H19.8167V3.42331Z" fill="white"/>
</svg>
